<svg width="40" height="40" viewBox="0 0 40 40" fill="none" xmlns="http://www.w3.org/2000/svg">
<g clip-path="url(#clip0_50_77)">
<path d="M20 33.7255C20.4803 33.7255 20.9438 33.9019 21.3027 34.221C21.6616 34.5401 21.8909 34.9799 21.9471 35.4569L21.9608 35.6863V37.6471C21.9602 38.1468 21.7689 38.6275 21.4258 38.9909C21.0827 39.3543 20.6138 39.573 20.1149 39.6023C19.616 39.6316 19.1248 39.4693 18.7415 39.1485C18.3583 38.8277 18.112 38.3727 18.053 37.8765L18.0392 37.6471V35.6863C18.0392 35.1662 18.2458 34.6675 18.6135 34.2998C18.9813 33.9321 19.48 33.7255 20 33.7255ZM32.3785 29.6274L32.5628 29.7902L33.9353 31.1627C34.287 31.5156 34.4911 31.9891 34.5063 32.487C34.5216 32.985 34.3467 33.47 34.0172 33.8437C33.6877 34.2173 33.2283 34.4516 32.7324 34.4988C32.2365 34.5461 31.7412 34.4028 31.3471 34.098L31.1628 33.9353L29.7902 32.5627C29.4519 32.225 29.2486 31.7752 29.2186 31.298C29.1886 30.8209 29.334 30.3492 29.6274 29.9717C29.9208 29.5942 30.342 29.337 30.8118 29.2483C31.2816 29.1596 31.7676 29.2456 32.1785 29.4902L32.3785 29.6274ZM10.2098 29.7902C10.5474 30.1278 10.7502 30.577 10.7802 31.0536C10.8102 31.5301 10.6652 32.0012 10.3726 32.3784L10.2098 32.5627L8.83728 33.9353C8.48442 34.287 8.01093 34.4911 7.51299 34.5063C7.01505 34.5215 6.52999 34.3466 6.15634 34.0172C5.78268 33.6877 5.54844 33.2283 5.5012 32.7324C5.45396 32.2365 5.59725 31.7412 5.90198 31.3471L6.06473 31.1627L7.43727 29.7902C7.80498 29.4226 8.30362 29.2161 8.82355 29.2161C9.34348 29.2161 9.84212 29.4226 10.2098 29.7902ZM4.31374 18.0392C4.81351 18.0398 5.2942 18.2311 5.6576 18.5742C6.02101 18.9173 6.2397 19.3862 6.26898 19.8851C6.29827 20.384 6.13595 20.8752 5.81519 21.2585C5.49442 21.6417 5.03942 21.888 4.54316 21.9471L4.31374 21.9608H2.35296C1.8532 21.9602 1.3725 21.7689 1.0091 21.4258C0.645697 21.0827 0.427009 20.6138 0.397721 20.1149C0.368432 19.616 0.530754 19.1247 0.851519 18.7415C1.17228 18.3583 1.62728 18.112 2.12355 18.0529L2.35296 18.0392H4.31374ZM37.6471 18.0392C38.1468 18.0398 38.6275 18.2311 38.9909 18.5742C39.3543 18.9173 39.573 19.3862 39.6023 19.8851C39.6316 20.384 39.4693 20.8752 39.1485 21.2585C38.8278 21.6417 38.3728 21.888 37.8765 21.9471L37.6471 21.9608H35.6863C35.1865 21.9602 34.7058 21.7689 34.3424 21.4258C33.979 21.0827 33.7603 20.6138 33.7311 20.1149C33.7018 19.616 33.8641 19.1247 34.1849 18.7415C34.5056 18.3583 34.9606 18.112 35.4569 18.0529L35.6863 18.0392H37.6471ZM8.65296 5.90195L8.83728 6.0647L10.2098 7.43725C10.5615 7.79011 10.7657 8.26359 10.7809 8.76153C10.7961 9.25947 10.6212 9.74453 10.2917 10.1182C9.96221 10.4918 9.50286 10.7261 9.00693 10.7733C8.51101 10.8206 8.01569 10.6773 7.62159 10.3725L7.43727 10.2098L6.06473 8.83725C5.72765 8.49937 5.52538 8.05014 5.49584 7.57378C5.46629 7.09743 5.61151 6.62665 5.90426 6.24971C6.19701 5.87277 6.61719 5.61554 7.08604 5.52625C7.55488 5.43696 8.0402 5.52174 8.451 5.7647L8.65296 5.90195ZM33.9353 6.0647C34.2729 6.40233 34.4757 6.85155 34.5057 7.32807C34.5356 7.80459 34.3907 8.27567 34.0981 8.65293L33.9353 8.83725L32.5628 10.2098C32.2099 10.5615 31.7364 10.7656 31.2385 10.7808C30.7405 10.796 30.2555 10.6211 29.8818 10.2917C29.5082 9.96219 29.2739 9.50283 29.2267 9.00691C29.1794 8.51098 29.3227 8.01566 29.6275 7.62156L29.7902 7.43725L31.1628 6.0647C31.5305 5.69711 32.0291 5.49061 32.549 5.49061C33.069 5.49061 33.5676 5.69711 33.9353 6.0647ZM20 0.392151C20.4803 0.392214 20.9438 0.568536 21.3027 0.887671C21.6616 1.20681 21.8909 1.64656 21.9471 2.12352L21.9608 2.35294V4.31372C21.9602 4.81348 21.7689 5.29418 21.4258 5.65758C21.0827 6.02098 20.6138 6.23967 20.1149 6.26896C19.616 6.29825 19.1248 6.13593 18.7415 5.81516C18.3583 5.4944 18.112 5.0394 18.053 4.54313L18.0392 4.31372V2.35294C18.0392 1.8329 18.2458 1.33417 18.6135 0.966451C18.9813 0.598733 19.48 0.392151 20 0.392151ZM20 10.1961C21.921 10.196 23.7996 10.7602 25.4026 11.8186C27.0056 12.8771 28.2624 14.3831 29.0168 16.1497C29.7712 17.9163 29.99 19.8656 29.6461 21.7555C29.3021 23.6454 28.4105 25.3926 27.082 26.7801C25.7536 28.1676 24.0468 29.1343 22.1736 29.5601C20.3005 29.9858 18.3435 29.8519 16.5458 29.175C14.7481 28.4981 13.1888 27.308 12.0617 25.7525C10.9346 24.197 10.2893 22.3446 10.2059 20.4255L10.1961 20L10.2059 19.5745C10.3155 17.0505 11.3953 14.6662 13.2201 12.9189C15.0448 11.1716 17.4736 10.1962 20 10.1961Z" fill="#FEFEFE"/>
</g>
<defs>
<clipPath id="clip0_50_77">
<rect width="40" height="40" fill="white"/>
</clipPath>
</defs>
</svg>
