<svg width="509" height="504" viewBox="0 0 509 504" fill="none" xmlns="http://www.w3.org/2000/svg">
<g clip-path="url(#clip0_24_1312)">
<path d="M209.205 471.799L57.4722 384.151C51.5548 380.739 51.5548 375.144 57.4722 371.731L303.155 229.813C305.595 228.4 309.586 228.4 312.015 229.813L467.471 319.611C470.596 321.419 470.596 325.933 467.471 327.73L218.065 471.789C215.625 473.201 211.634 473.201 209.205 471.789V471.799Z" fill="#E0E0E0"/>
<path d="M398.197 459.646C429.258 459.646 454.438 445.115 454.438 427.189C454.438 409.263 429.258 394.732 398.197 394.732C367.135 394.732 341.955 409.263 341.955 427.189C341.955 445.115 367.135 459.646 398.197 459.646Z" fill="#E0E0E0"/>
<path d="M73.1377 333.229C73.1377 333.229 72.8167 310.389 63.3254 291.753C53.8341 273.118 39.4847 260.633 25.1996 258.066C10.9038 255.498 -2.04379 267.587 12.466 278.221C26.9759 288.854 53.4274 300.857 62.6406 336.15L73.1377 333.24V333.229Z" fill="#27DEBF"/>
<path opacity="0.15" d="M73.1377 333.229C73.1377 333.229 72.8167 310.389 63.3254 291.753C53.8341 273.118 39.4847 260.633 25.1996 258.066C10.9038 255.498 -2.04379 267.587 12.466 278.221C26.9759 288.854 53.4274 300.857 62.6406 336.15L73.1377 333.24V333.229Z" fill="#111111"/>
<path d="M69.4996 326.95C69.4996 326.95 69.6066 326.939 69.6601 326.917C70.0667 326.8 70.3021 326.372 70.1844 325.955C58.7135 287.014 31.331 268.507 18.4476 264.164C18.041 264.024 17.6023 264.249 17.4632 264.645C17.3241 265.051 17.5381 265.49 17.9447 265.629C30.5606 269.887 57.3974 288.063 68.6864 326.393C68.7934 326.746 69.1358 326.971 69.4889 326.95H69.4996Z" fill="white"/>
<path d="M74.5823 354.775C69.2748 357.824 66.2359 359.803 56.4985 360.616C50.6881 361.108 42.834 360.284 36.0606 357.845C34.2522 357.193 31.4594 355.77 33.0323 354.037C33.8456 353.138 43.3904 351.63 46.8038 347.607C42.8126 348.677 37.5479 349.886 33.4175 349.982C29.2872 350.068 24.9749 349.084 21.8075 346.43C18.6616 343.799 16.9495 339.862 15.3552 336.086C14.8094 334.791 14.2958 333.208 15.1304 332.085C15.6655 331.368 16.5857 331.09 17.4417 330.854C21.0585 329.849 24.6753 328.843 28.292 327.838C30.6461 327.335 28.9876 325.773 28.0887 325.644C26.5371 325.42 25.0605 325.42 24.1616 325.473C20.0206 325.698 15.4515 326.479 12.0701 324.072C10.0477 322.638 8.84927 320.253 8.34635 317.824C8.16444 316.968 7.45821 305.8 7.95043 305.661C10.6362 304.923 13.4612 304.537 16.2219 304.217C18.8435 303.917 21.4009 303.799 24.0118 303.446C26.9652 303.05 29.9399 302.858 32.9146 302.858C33.9205 302.858 34.9905 302.901 35.8466 303.446C37.0236 304.184 37.4837 305.671 37.6335 307.041C37.7833 308.421 37.7084 309.854 38.19 311.149C39.4633 311.042 39.8806 309.384 39.8485 308.111C39.8164 306.838 39.8485 305.244 40.9935 304.698C41.582 304.42 42.2668 304.527 42.8982 304.666C46.9429 305.49 50.8807 306.805 54.6152 308.56C56.3273 309.362 58.0286 310.293 59.2592 311.726C61.0676 313.845 61.6133 316.776 61.624 319.557C61.6347 322.339 61.2067 325.131 61.3886 327.902C63.5715 325.955 66.5997 320.039 66.8351 317.129C71.5219 320.146 74.304 326.35 75.1708 334.845C75.7486 340.45 75.6095 347.821 74.8284 353.502C74.807 353.694 74.7535 354.689 74.5823 354.786V354.775Z" fill="#27DEBF"/>
<path opacity="0.3" d="M74.5823 354.775C69.2748 357.824 66.2359 359.803 56.4985 360.616C50.6881 361.108 42.834 360.284 36.0606 357.845C34.2522 357.193 31.4594 355.77 33.0323 354.037C33.8456 353.138 43.3904 351.63 46.8038 347.607C42.8126 348.677 37.5479 349.886 33.4175 349.982C29.2872 350.068 24.9749 349.084 21.8075 346.43C18.6616 343.799 16.9495 339.862 15.3552 336.086C14.8094 334.791 14.2958 333.208 15.1304 332.085C15.6655 331.368 16.5857 331.09 17.4417 330.854C21.0585 329.849 24.6753 328.843 28.292 327.838C30.6461 327.335 28.9876 325.773 28.0887 325.644C26.5371 325.42 25.0605 325.42 24.1616 325.473C20.0206 325.698 15.4515 326.479 12.0701 324.072C10.0477 322.638 8.84927 320.253 8.34635 317.824C8.16444 316.968 7.45821 305.8 7.95043 305.661C10.6362 304.923 13.4612 304.537 16.2219 304.217C18.8435 303.917 21.4009 303.799 24.0118 303.446C26.9652 303.05 29.9399 302.858 32.9146 302.858C33.9205 302.858 34.9905 302.901 35.8466 303.446C37.0236 304.184 37.4837 305.671 37.6335 307.041C37.7833 308.421 37.7084 309.854 38.19 311.149C39.4633 311.042 39.8806 309.384 39.8485 308.111C39.8164 306.838 39.8485 305.244 40.9935 304.698C41.582 304.42 42.2668 304.527 42.8982 304.666C46.9429 305.49 50.8807 306.805 54.6152 308.56C56.3273 309.362 58.0286 310.293 59.2592 311.726C61.0676 313.845 61.6133 316.776 61.624 319.557C61.6347 322.339 61.2067 325.131 61.3886 327.902C63.5715 325.955 66.5997 320.039 66.8351 317.129C71.5219 320.146 74.304 326.35 75.1708 334.845C75.7486 340.45 75.6095 347.821 74.8284 353.502C74.807 353.694 74.7535 354.689 74.5823 354.786V354.775Z" fill="#111111"/>
<path d="M73.7048 353.726C73.4694 353.726 73.2447 353.598 73.1377 353.384C57.9537 324.243 24.3757 311.962 16.2112 310.272C15.8688 310.197 15.6441 309.854 15.7083 309.512C15.7832 309.17 16.1256 308.945 16.468 309.009C24.7609 310.732 58.8526 323.195 74.2719 352.785C74.4325 353.095 74.3148 353.491 74.0044 353.652C73.9081 353.705 73.8118 353.726 73.7048 353.726Z" fill="white"/>
<path d="M29.5975 336.931C29.2657 336.931 28.9875 336.674 28.9554 336.342C28.9233 335.989 29.1908 335.679 29.544 335.647C46.3009 334.331 51.7153 327.773 51.7688 327.709C51.9936 327.431 52.3895 327.388 52.6677 327.602C52.9459 327.827 52.9887 328.223 52.7747 328.501C52.55 328.79 47.0285 335.561 29.6403 336.931C29.6189 336.931 29.6082 336.931 29.5868 336.931H29.5975Z" fill="white"/>
<path d="M479.253 255.659C471.827 263.778 458.205 277.14 450.287 290.042C450.265 290.074 450.244 290.106 450.233 290.138C447.141 295.198 444.926 300.183 444.316 304.751L443.759 312.999L440.367 311.042L439.8 310.71L438.398 309.908C436.387 308.742 435.124 306.613 435.07 304.302C434.525 284.19 439.896 267.095 445.097 256.739C452.213 242.607 465.545 228.197 477.134 229.609C487.909 230.925 489.611 244.34 479.253 255.659Z" fill="#27DEBF"/>
<path opacity="0.15" d="M479.253 255.659C471.827 263.778 458.205 277.14 450.287 290.042C450.265 290.074 450.244 290.106 450.233 290.138C447.141 295.198 444.926 300.183 444.316 304.751L443.759 312.999L440.367 311.042L439.8 310.71L438.398 309.908C436.387 308.742 435.124 306.613 435.07 304.302C434.525 284.19 439.896 267.095 445.097 256.739C452.213 242.607 465.545 228.197 477.134 229.609C487.909 230.925 489.611 244.34 479.253 255.659Z" fill="#111111"/>
<path d="M473.785 237.408C459.596 246.373 439.34 277.622 439.8 310.71L438.398 309.908C438.281 276.616 458.708 245.292 473.036 236.231C473.367 236.017 473.795 236.124 473.999 236.456C474.202 236.777 474.106 237.205 473.785 237.408Z" fill="white"/>
<path d="M487.663 282.168C485.191 288.876 471.088 294.695 460.677 304.377C457.937 306.923 455.551 309.555 453.539 312.133C451.528 314.711 447.922 315.396 445.086 313.759L443.845 313.042L443.759 312.999L440.367 311.042C442.379 303.468 445.996 296.289 450.233 290.138C450.244 290.106 450.265 290.074 450.287 290.042C457.178 280.05 465.684 272.829 471.623 271.192C483.297 267.983 490.627 274.113 487.663 282.168Z" fill="#27DEBF"/>
<path opacity="0.3" d="M487.663 282.168C485.191 288.876 471.088 294.695 460.677 304.377C457.937 306.923 455.551 309.555 453.539 312.133C451.528 314.711 447.922 315.396 445.086 313.759L443.845 313.042L443.759 312.999L440.367 311.042C442.379 303.468 445.996 296.289 450.233 290.138C450.244 290.106 450.265 290.074 450.287 290.042C457.178 280.05 465.684 272.829 471.623 271.192C483.297 267.983 490.627 274.113 487.663 282.168Z" fill="#111111"/>
<path d="M477.744 278.135C469.216 280.542 452.694 290.94 445.086 313.759L443.845 313.042C451.56 289.946 467.985 279.44 477.369 276.798C477.755 276.691 478.118 276.905 478.225 277.279C478.332 277.654 478.118 278.039 477.744 278.135Z" fill="white"/>
<path d="M65.2087 367.997C65.2087 371.71 67.9908 376.32 71.415 378.3L206.551 456.319C209.975 458.298 215.54 458.298 218.964 456.319L456.921 318.969C460.345 316.99 463.127 312.379 463.127 308.667C463.127 304.955 460.345 300.344 456.921 298.365L321.785 220.345C318.36 218.366 312.796 218.366 309.372 220.345L71.415 357.695C67.9908 359.674 65.2087 364.285 65.2087 367.997Z" fill="#455A64"/>
<path d="M463.127 308.667C463.127 312.379 460.345 316.99 456.921 318.969L218.964 456.33C217.252 457.314 215.005 457.806 212.768 457.806V444.37C215.005 444.37 217.252 443.867 218.964 442.883L456.921 305.532C459.928 303.799 460.302 301.125 458.044 299.156C460.934 301.392 463.127 305.372 463.127 308.667Z" fill="#37474F"/>
<path d="M212.757 444.37V457.796C210.51 457.796 208.253 457.304 206.551 456.319L71.415 378.3C67.9908 376.32 65.2087 371.71 65.2087 367.997C65.2087 364.51 67.6591 360.241 70.7836 358.091C68.0015 360.081 68.2155 363.002 71.415 364.852L206.551 442.872C208.253 443.856 210.51 444.359 212.757 444.359V444.37Z" fill="#263238"/>
<path d="M59.3876 357.92C56.3487 355.781 56.3487 352.935 56.3487 348.977V149.054C56.3487 145.096 59.1308 140.282 62.555 138.303L300.501 0.952327C303.925 -1.02679 307.093 0.406733 310.303 2.26817C313.524 4.12961 315.568 5.7236 315.568 9.68182V209.604C315.568 213.563 312.785 218.377 309.361 220.356L71.4043 357.706C66.2145 361.204 62.6834 360.252 59.3769 357.931L59.3876 357.92Z" fill="#37474F"/>
<path d="M71.415 357.695C66.2252 361.183 62.6834 360.241 59.3876 357.909C56.3594 355.77 56.3487 352.913 56.3487 348.966V149.054C56.3487 147.075 57.0442 144.882 58.1571 142.945L67.0171 148.102C65.8935 150.028 65.2087 152.221 65.2087 154.189V354.112C65.2087 358.07 67.9801 359.664 71.415 357.695Z" fill="#263238"/>
<path d="M315.578 9.67091C315.578 5.72338 312.796 4.11869 309.372 6.08711L71.4149 143.448C69.7029 144.443 68.1406 146.144 67.0277 148.091L58.1677 142.945H58.157C59.2806 140.998 60.8429 139.297 62.5549 138.303L300.501 0.95211C303.925 -1.027 307.093 0.406516 310.303 2.25725C313.524 4.11869 315.578 5.72338 315.578 9.67091Z" fill="#455A64"/>
<path d="M74.7535 150.605L304.172 18.2185C306.226 17.0311 307.895 17.9939 307.895 20.3688V203.742C307.895 206.117 306.226 209.005 304.172 210.193L74.7535 342.579C72.699 343.767 71.0297 342.804 71.0297 340.429V157.067C71.0297 154.692 72.699 151.803 74.7535 150.616V150.605Z" fill="#263238"/>
<path d="M74.7535 150.605C72.699 151.793 71.0297 154.681 71.0297 157.056V339.316L299.1 207.711C301.154 206.523 302.823 203.635 302.823 201.26V18.9995L74.7535 150.605Z" fill="#27DEBF"/>
<path opacity="0.65" d="M74.7535 150.605C72.699 151.793 71.0297 154.681 71.0297 157.056V339.316L299.1 207.711C301.154 206.523 302.823 203.635 302.823 201.26V18.9995L74.7535 150.605Z" fill="white"/>
<path d="M88.5892 358.059L309.458 230.572C311.17 229.588 313.952 229.588 315.664 230.572L322.095 233.942C323.807 234.926 323.807 236.531 322.095 237.526L101.184 364.991C99.4716 365.976 96.6895 365.976 94.9774 364.991L88.5892 361.632C86.8772 360.648 86.8772 359.043 88.5892 358.048V358.059Z" fill="#37474F"/>
<path d="M105.913 368.361L326.782 240.874C328.494 239.89 331.03 239.751 332.453 240.564L389.947 273.749C391.37 274.562 391.124 276.028 389.412 277.022L168.8 404.338C167.088 405.322 164.541 405.472 163.118 404.659L105.389 371.624C103.966 370.811 104.201 369.345 105.913 368.361Z" fill="#263238"/>
<path d="M295.483 293.893L302.395 289.903C302.684 289.732 302.727 289.485 302.492 289.346L296.392 285.827C296.157 285.688 295.718 285.709 295.429 285.88L288.517 289.871C288.228 290.042 288.185 290.288 288.421 290.427L294.52 293.946C294.766 294.086 295.194 294.064 295.483 293.893ZM285.831 280.339L278.919 284.329C278.63 284.5 278.587 284.746 278.822 284.885L284.921 288.405C285.157 288.544 285.596 288.523 285.885 288.352L292.797 284.361C293.086 284.19 293.139 283.944 292.893 283.805L286.794 280.285C286.559 280.146 286.12 280.168 285.831 280.339ZM263.488 293.24L251.782 299.991C251.493 300.162 251.45 300.408 251.686 300.547L257.785 304.067C258.031 304.206 258.459 304.184 258.748 304.013L270.454 297.263C270.743 297.092 270.786 296.846 270.551 296.707L264.451 293.187C264.205 293.048 263.777 293.069 263.488 293.24ZM275.719 286.18L268.807 290.17C268.518 290.341 268.475 290.587 268.71 290.726L274.81 294.246C275.045 294.385 275.484 294.364 275.773 294.193L282.685 290.202C282.974 290.031 283.027 289.785 282.781 289.646L276.682 286.126C276.447 285.987 276.008 286.009 275.719 286.18ZM248.593 301.842L241.681 305.832C241.381 306.003 241.338 306.249 241.585 306.388L247.684 309.908C247.919 310.047 248.358 310.025 248.647 309.854L255.559 305.864C255.848 305.693 255.891 305.447 255.656 305.308L249.556 301.788C249.321 301.649 248.882 301.67 248.593 301.842ZM238.481 307.672L231.569 311.662C231.28 311.833 231.237 312.079 231.473 312.219L237.572 315.738C237.807 315.877 238.246 315.856 238.535 315.685L245.447 311.694C245.736 311.523 245.779 311.277 245.544 311.138L239.444 307.618C239.198 307.479 238.77 307.501 238.481 307.672ZM264.109 323.077L271.022 319.087C271.31 318.915 271.353 318.669 271.118 318.53L265.019 315.011C264.772 314.872 264.344 314.893 264.056 315.064L257.143 319.054C256.854 319.226 256.801 319.472 257.047 319.611L263.146 323.13C263.381 323.269 263.82 323.248 264.109 323.077ZM253.997 328.907L260.91 324.917C261.199 324.746 261.241 324.5 261.006 324.361L254.907 320.841C254.661 320.702 254.233 320.723 253.944 320.895L247.031 324.885C246.742 325.056 246.699 325.302 246.935 325.441L253.034 328.961C253.28 329.1 253.708 329.078 253.997 328.907ZM243.885 334.738L250.798 330.747C251.087 330.576 251.129 330.33 250.894 330.191L244.795 326.671C244.549 326.532 244.121 326.554 243.832 326.725L236.919 330.715C236.63 330.886 236.587 331.132 236.823 331.272L242.922 334.791C243.168 334.93 243.596 334.909 243.885 334.738ZM233.773 340.568L240.686 336.578C240.975 336.407 241.017 336.16 240.782 336.021L234.683 332.502C234.447 332.363 234.009 332.384 233.72 332.555L226.807 336.546C226.518 336.717 226.465 336.963 226.711 337.102L232.81 340.621C233.046 340.761 233.484 340.739 233.773 340.568ZM285.36 299.723L292.273 295.733C292.562 295.562 292.604 295.316 292.369 295.177L286.27 291.657C286.034 291.518 285.596 291.539 285.307 291.711L278.394 295.701C278.105 295.872 278.052 296.118 278.298 296.257L284.397 299.777C284.643 299.916 285.071 299.895 285.371 299.723H285.36ZM274.21 317.236L289.64 308.335C289.929 308.164 289.972 307.918 289.737 307.779L274.039 298.718C273.793 298.579 273.365 298.6 273.076 298.771L265.094 303.382C264.805 303.553 264.762 303.799 264.997 303.938L273.718 308.977C273.953 309.116 273.911 309.362 273.622 309.533L267.234 313.213C266.945 313.385 266.891 313.631 267.137 313.77L273.237 317.289C273.472 317.428 273.911 317.407 274.2 317.236H274.21ZM228.369 313.502L221.457 317.493C221.168 317.664 221.125 317.91 221.361 318.049L227.46 321.569C227.695 321.708 228.134 321.686 228.423 321.515L235.335 317.525C235.624 317.354 235.667 317.107 235.432 316.968L229.333 313.449C229.097 313.31 228.658 313.331 228.369 313.502ZM218.258 319.333L211.345 323.323C211.056 323.494 211.013 323.74 211.249 323.879L217.348 327.399C217.594 327.538 218.022 327.517 218.311 327.345L225.224 323.355C225.512 323.184 225.555 322.938 225.32 322.799L219.221 319.279C218.985 319.14 218.546 319.161 218.258 319.333ZM162.059 381.466C162.294 381.605 162.733 381.584 163.022 381.413L169.934 377.422C170.223 377.251 170.266 377.005 170.031 376.866L163.931 373.346C163.685 373.207 163.257 373.229 162.968 373.4L156.056 377.39C155.767 377.561 155.724 377.807 155.959 377.947L162.059 381.466ZM137.394 366.008L130.482 369.998C130.193 370.169 130.139 370.415 130.385 370.554L136.485 374.074C136.731 374.213 137.159 374.192 137.448 374.02L144.36 370.03C144.649 369.859 144.692 369.613 144.456 369.474L138.357 365.954C138.111 365.815 137.683 365.836 137.394 366.008ZM149.796 377.465C150.042 377.604 150.47 377.583 150.759 377.412L157.671 373.421C157.96 373.25 158.003 373.004 157.768 372.865L151.669 369.345C151.422 369.206 150.994 369.228 150.705 369.399L143.793 373.389C143.504 373.56 143.461 373.806 143.697 373.945L149.796 377.465ZM177.927 383.884L184.84 379.894C185.129 379.722 185.182 379.476 184.936 379.337L178.837 375.818C178.602 375.679 178.163 375.7 177.874 375.871L170.961 379.861C170.673 380.033 170.63 380.279 170.865 380.418L176.964 383.937C177.2 384.076 177.639 384.055 177.927 383.884ZM166.852 389.778C167.088 389.917 167.527 389.896 167.816 389.725L174.728 385.735C175.017 385.563 175.06 385.317 174.824 385.178L168.725 381.659C168.479 381.52 168.051 381.541 167.762 381.712L160.85 385.702C160.561 385.874 160.518 386.12 160.753 386.259L166.852 389.778ZM147.495 360.177L140.583 364.168C140.283 364.339 140.251 364.585 140.487 364.724L146.586 368.243C146.821 368.383 147.26 368.361 147.549 368.19L154.461 364.2C154.75 364.029 154.793 363.782 154.558 363.643L148.458 360.124C148.223 359.985 147.784 360.006 147.495 360.177ZM198.034 331.004L191.121 334.994C190.832 335.166 190.789 335.412 191.025 335.551L197.124 339.07C197.37 339.209 197.798 339.188 198.087 339.017L205 335.026C205.289 334.855 205.331 334.609 205.096 334.47L198.997 330.951C198.761 330.811 198.323 330.833 198.034 331.004ZM157.607 354.336L150.695 358.327C150.406 358.498 150.363 358.744 150.598 358.883L156.698 362.402C156.944 362.542 157.372 362.52 157.661 362.349L164.573 358.359C164.862 358.187 164.905 357.941 164.67 357.802L158.57 354.283C158.324 354.144 157.896 354.165 157.607 354.336ZM208.146 325.163L201.233 329.153C200.944 329.324 200.901 329.571 201.137 329.71L207.236 333.229C207.482 333.368 207.91 333.347 208.199 333.176L215.112 329.185C215.401 329.014 215.443 328.768 215.208 328.629L209.109 325.11C208.863 324.97 208.435 324.992 208.146 325.163ZM187.932 336.834L181.02 340.825C180.731 340.996 180.677 341.242 180.924 341.381L187.023 344.901C187.258 345.04 187.697 345.018 187.986 344.847L194.898 340.857C195.187 340.686 195.241 340.44 194.995 340.301L188.895 336.781C188.66 336.642 188.221 336.663 187.932 336.834ZM177.82 342.665L170.908 346.655C170.619 346.826 170.566 347.072 170.812 347.211L176.911 350.731C177.146 350.87 177.585 350.849 177.874 350.678L184.786 346.687C185.075 346.516 185.118 346.27 184.883 346.131L178.784 342.611C178.548 342.472 178.109 342.494 177.82 342.665ZM167.709 348.495L160.796 352.485C160.507 352.657 160.464 352.903 160.7 353.042L166.799 356.561C167.045 356.7 167.473 356.679 167.762 356.508L174.675 352.518C174.963 352.346 175.006 352.1 174.771 351.961L168.672 348.442C168.425 348.303 167.997 348.324 167.709 348.495ZM213.549 352.229L220.462 348.238C220.751 348.067 220.804 347.821 220.558 347.682L214.459 344.162C214.213 344.023 213.785 344.045 213.496 344.216L206.583 348.206C206.294 348.377 206.252 348.624 206.487 348.763L212.586 352.282C212.832 352.421 213.26 352.4 213.549 352.229ZM308.141 267.426L301.229 271.417C300.94 271.588 300.897 271.834 301.133 271.973L307.232 275.493C307.467 275.632 307.906 275.61 308.195 275.439L315.108 271.449C315.396 271.278 315.439 271.032 315.204 270.893L309.105 267.373C308.869 267.234 308.43 267.255 308.141 267.426ZM295.911 274.487L288.998 278.477C288.709 278.648 288.667 278.895 288.902 279.034L295.001 282.553C295.237 282.692 295.675 282.671 295.964 282.5L302.877 278.509C303.166 278.338 303.209 278.092 302.973 277.953L296.874 274.434C296.638 274.294 296.2 274.316 295.911 274.487ZM318.253 261.596L311.341 265.586C311.052 265.758 311.009 266.004 311.245 266.143L317.344 269.662C317.579 269.801 318.018 269.78 318.307 269.609L325.219 265.618C325.508 265.447 325.562 265.201 325.316 265.062L319.216 261.543C318.97 261.403 318.542 261.425 318.243 261.596H318.253ZM261.937 313.224L268.849 309.234C269.138 309.063 269.181 308.817 268.946 308.678L262.846 305.158C262.611 305.019 262.172 305.04 261.883 305.211L254.971 309.202C254.682 309.373 254.639 309.619 254.875 309.758L260.974 313.278C261.22 313.417 261.648 313.395 261.937 313.224ZM329.328 255.701C329.093 255.562 328.654 255.584 328.365 255.755L321.453 259.745C321.164 259.916 321.11 260.163 321.357 260.302L327.456 263.821C327.691 263.96 328.13 263.939 328.419 263.768L335.331 259.777C335.62 259.606 335.674 259.36 335.428 259.221L329.328 255.701ZM223.661 346.388L230.574 342.397C230.863 342.226 230.906 341.98 230.67 341.841L224.571 338.321C224.325 338.182 223.897 338.204 223.608 338.375L216.695 342.365C216.406 342.536 216.364 342.782 216.599 342.922L222.698 346.441C222.934 346.58 223.372 346.559 223.661 346.388ZM347.605 274.84L354.517 270.85C354.806 270.679 354.849 270.433 354.614 270.293L348.514 266.774C348.279 266.635 347.84 266.656 347.551 266.827L340.639 270.818C340.35 270.989 340.296 271.235 340.543 271.374L346.642 274.894C346.877 275.033 347.316 275.011 347.605 274.84ZM327.905 275.14L334.818 271.149C335.107 270.978 335.149 270.732 334.914 270.593L328.815 267.073C328.579 266.934 328.141 266.956 327.852 267.127L320.939 271.117C320.65 271.288 320.597 271.534 320.843 271.673L326.942 275.193C327.178 275.332 327.616 275.311 327.905 275.14ZM338.927 261.232C338.691 261.093 338.253 261.115 337.964 261.286L331.051 265.276C330.762 265.447 330.719 265.693 330.955 265.832L337.054 269.352C337.29 269.491 337.728 269.47 338.017 269.299L344.93 265.308C345.219 265.137 345.272 264.891 345.026 264.752L338.927 261.232ZM341.056 260.002L356.754 269.063C357 269.202 357.428 269.181 357.717 269.01L364.629 265.019C364.918 264.848 364.961 264.602 364.726 264.463L349.028 255.402C348.782 255.263 348.354 255.284 348.065 255.455L341.152 259.446C340.864 259.617 340.821 259.863 341.056 260.002ZM317.751 272.957L310.838 276.948C310.549 277.119 310.496 277.365 310.742 277.504L316.841 281.023C317.087 281.163 317.515 281.141 317.804 280.97L324.717 276.98C325.005 276.808 325.048 276.562 324.813 276.423L318.714 272.904C318.467 272.765 318.039 272.786 317.751 272.957ZM241.681 316.861L234.768 320.852C234.479 321.023 234.437 321.269 234.672 321.408L240.771 324.928C241.007 325.067 241.445 325.045 241.734 324.874L248.647 320.884C248.936 320.713 248.979 320.467 248.743 320.328L242.644 316.808C242.398 316.669 241.97 316.69 241.681 316.861ZM336.541 280.724C336.776 280.863 337.215 280.842 337.504 280.67L344.416 276.68C344.705 276.509 344.748 276.263 344.512 276.124L338.413 272.604C338.178 272.465 337.739 272.486 337.45 272.658L330.538 276.648C330.249 276.819 330.195 277.065 330.441 277.204L336.541 280.724ZM251.793 311.02L244.88 315.011C244.591 315.182 244.549 315.428 244.784 315.567L250.883 319.087C251.119 319.226 251.557 319.204 251.846 319.033L258.759 315.043C259.048 314.872 259.091 314.626 258.855 314.486L252.756 310.967C252.52 310.828 252.082 310.849 251.793 311.02ZM172.171 375.604C172.417 375.743 172.845 375.721 173.134 375.55L180.046 371.56C180.335 371.389 180.378 371.143 180.142 371.004L174.043 367.484C173.808 367.345 173.369 367.366 173.08 367.537L166.168 371.528C165.879 371.699 165.836 371.945 166.071 372.084L172.171 375.604ZM160.828 363.526L153.916 367.516C153.627 367.687 153.584 367.933 153.819 368.072L159.919 371.592C160.165 371.731 160.593 371.71 160.882 371.538L167.794 367.548C168.083 367.377 168.126 367.131 167.89 366.992L161.791 363.472C161.556 363.333 161.117 363.355 160.828 363.526ZM183.246 369.709L190.158 365.719C190.447 365.548 190.501 365.302 190.254 365.162L184.155 361.643C183.92 361.504 183.481 361.525 183.192 361.696L176.28 365.687C175.991 365.858 175.948 366.104 176.183 366.243L182.283 369.763C182.518 369.902 182.957 369.88 183.246 369.709ZM193.358 363.879L200.27 359.888C200.559 359.717 200.612 359.471 200.366 359.332L194.267 355.813C194.032 355.673 193.593 355.695 193.304 355.866L186.392 359.856C186.103 360.028 186.049 360.274 186.295 360.413L192.395 363.932C192.63 364.071 193.069 364.05 193.358 363.879ZM203.469 358.048L210.382 354.058C210.671 353.887 210.714 353.641 210.478 353.502L204.379 349.982C204.144 349.843 203.705 349.864 203.416 350.036L196.503 354.026C196.215 354.197 196.172 354.443 196.407 354.582L202.506 358.102C202.753 358.241 203.181 358.22 203.469 358.048ZM170.94 357.695L164.028 361.686C163.739 361.857 163.696 362.103 163.931 362.242L170.031 365.762C170.266 365.901 170.705 365.879 170.994 365.708L177.906 361.718C178.195 361.547 178.238 361.301 178.002 361.161L171.903 357.642C171.657 357.503 171.229 357.524 170.94 357.695ZM181.052 351.865L174.14 355.855C173.851 356.026 173.797 356.273 174.043 356.412L180.142 359.931C180.389 360.07 180.817 360.049 181.106 359.878L188.018 355.887C188.307 355.716 188.35 355.47 188.114 355.331L182.015 351.811C181.78 351.672 181.341 351.694 181.052 351.865ZM221.478 328.533L214.566 332.523C214.277 332.694 214.234 332.94 214.47 333.079L220.569 336.599C220.815 336.738 221.243 336.717 221.532 336.546L228.444 332.555C228.733 332.384 228.776 332.138 228.541 331.999L222.441 328.479C222.206 328.34 221.767 328.362 221.478 328.533ZM211.366 334.363L204.454 338.354C204.165 338.525 204.112 338.771 204.358 338.91L210.457 342.429C210.692 342.569 211.131 342.547 211.42 342.376L218.332 338.386C218.621 338.214 218.675 337.968 218.429 337.829L212.329 334.31C212.094 334.171 211.655 334.192 211.366 334.363ZM231.58 322.692L224.667 326.682C224.378 326.853 224.335 327.099 224.571 327.238L230.67 330.758C230.906 330.897 231.344 330.876 231.633 330.705L238.546 326.714C238.835 326.543 238.877 326.297 238.642 326.158L232.543 322.638C232.307 322.499 231.869 322.521 231.58 322.692ZM191.153 346.024L184.241 350.014C183.952 350.185 183.898 350.431 184.144 350.571L190.244 354.09C190.479 354.229 190.918 354.208 191.207 354.037L198.119 350.046C198.408 349.875 198.451 349.629 198.216 349.49L192.116 345.97C191.881 345.831 191.442 345.853 191.153 346.024ZM201.255 340.194L194.342 344.184C194.053 344.355 194.01 344.601 194.246 344.74L200.345 348.26C200.58 348.399 201.019 348.377 201.308 348.206L208.221 344.216C208.509 344.045 208.563 343.799 208.317 343.66L202.218 340.14C201.982 340.001 201.543 340.022 201.255 340.194ZM188.05 378.011L194.963 374.02C195.252 373.849 195.294 373.603 195.059 373.464L188.96 369.944C188.724 369.805 188.286 369.827 187.997 369.998L181.084 373.988C180.795 374.159 180.752 374.405 180.988 374.545L187.087 378.064C187.333 378.203 187.761 378.182 188.05 378.011ZM134.366 375.272L128.267 371.752C128.031 371.613 127.592 371.635 127.304 371.806L120.391 375.796C120.102 375.967 120.059 376.213 120.295 376.353L126.394 379.872C126.64 380.011 127.068 379.99 127.357 379.819L134.27 375.828C134.558 375.657 134.601 375.411 134.366 375.272ZM147.688 378.663L141.589 375.144C141.353 375.005 140.915 375.026 140.626 375.197L129.989 381.338C129.7 381.509 129.658 381.755 129.893 381.894L135.992 385.414C136.238 385.553 136.666 385.531 136.955 385.36L147.592 379.22C147.881 379.048 147.923 378.802 147.688 378.663ZM125.388 368.243L119.289 364.724C119.053 364.585 118.615 364.606 118.326 364.777L109.819 369.688C109.53 369.859 109.477 370.105 109.723 370.244L115.822 373.764C116.057 373.903 116.496 373.881 116.785 373.71L125.292 368.8C125.581 368.629 125.624 368.383 125.388 368.243ZM131.915 364.478C132.151 364.617 132.59 364.595 132.878 364.424L139.791 360.434C140.08 360.263 140.133 360.017 139.887 359.878L133.788 356.358C133.553 356.219 133.114 356.24 132.825 356.412L125.912 360.402C125.613 360.573 125.57 360.819 125.816 360.958L131.915 364.478ZM159.94 382.664L153.841 379.145C153.595 379.006 153.167 379.027 152.878 379.198L139.577 386.869C139.288 387.04 139.245 387.286 139.481 387.425L145.58 390.944C145.826 391.084 146.254 391.062 146.543 390.891L159.844 383.21C160.133 383.039 160.186 382.793 159.94 382.654V382.664ZM164.745 390.966L158.645 387.446C158.41 387.307 157.971 387.329 157.682 387.5L149.175 392.41C148.886 392.581 148.833 392.827 149.079 392.966L155.178 396.486C155.414 396.625 155.852 396.604 156.141 396.433L164.648 391.522C164.937 391.351 164.98 391.105 164.745 390.966ZM207.065 321.109C207.3 321.248 207.739 321.226 208.028 321.055L214.94 317.065C215.229 316.894 215.283 316.647 215.037 316.508L208.937 312.989C208.691 312.85 208.263 312.871 207.964 313.042L201.051 317.033C200.762 317.204 200.709 317.45 200.955 317.589L207.054 321.109H207.065ZM186.852 332.78C187.098 332.919 187.526 332.898 187.815 332.726L194.727 328.736C195.016 328.565 195.059 328.319 194.824 328.18L188.724 324.66C188.489 324.521 188.05 324.543 187.761 324.714L180.849 328.704C180.56 328.875 180.517 329.121 180.752 329.26L186.852 332.78ZM142.027 358.658C142.274 358.797 142.702 358.776 142.99 358.605L149.903 354.614C150.192 354.443 150.245 354.197 149.999 354.058L143.9 350.538C143.665 350.399 143.226 350.421 142.937 350.592L136.024 354.582C135.736 354.753 135.693 354.999 135.928 355.139L142.027 358.658ZM196.964 326.95C197.199 327.089 197.638 327.067 197.927 326.896L204.839 322.906C205.128 322.735 205.171 322.489 204.935 322.349L198.836 318.83C198.59 318.691 198.162 318.712 197.873 318.883L190.961 322.874C190.672 323.045 190.618 323.291 190.864 323.43L196.964 326.95ZM176.75 338.621C176.997 338.76 177.425 338.739 177.713 338.567L184.626 334.577C184.915 334.406 184.958 334.16 184.722 334.021L178.623 330.501C178.377 330.362 177.949 330.384 177.66 330.555L170.747 334.545C170.459 334.716 170.416 334.962 170.651 335.101L176.75 338.621ZM170.373 391.768C170.127 391.629 169.699 391.651 169.41 391.822L158.774 397.962C158.485 398.133 158.442 398.379 158.677 398.519L164.777 402.038C165.023 402.177 165.451 402.156 165.74 401.985L176.376 395.844C176.665 395.673 176.708 395.427 176.472 395.288L170.373 391.768ZM162.241 346.997C162.487 347.136 162.915 347.115 163.204 346.944L170.116 342.954C170.405 342.782 170.448 342.536 170.212 342.397L164.113 338.878C163.867 338.739 163.439 338.76 163.15 338.931L156.238 342.922C155.949 343.093 155.906 343.339 156.141 343.478L162.241 346.997ZM152.129 352.828C152.375 352.967 152.803 352.945 153.092 352.774L160.004 348.784C160.293 348.613 160.336 348.367 160.1 348.228L154.001 344.708C153.755 344.569 153.327 344.59 153.038 344.762L146.126 348.752C145.837 348.923 145.794 349.169 146.029 349.308L152.129 352.828ZM357.62 283.687C357.374 283.548 356.946 283.57 356.657 283.741L339.633 293.561C339.344 293.733 339.291 293.979 339.537 294.118L345.636 297.637C345.871 297.776 346.31 297.755 346.599 297.584L363.623 287.763C363.912 287.592 363.966 287.346 363.72 287.207L357.62 283.687ZM335.278 296.589C335.042 296.45 334.604 296.471 334.315 296.642L327.402 300.633C327.113 300.804 327.071 301.05 327.306 301.189L333.405 304.709C333.651 304.848 334.079 304.826 334.368 304.655L341.281 300.665C341.57 300.494 341.613 300.248 341.377 300.109L335.278 296.589ZM198.162 372.202L205.075 368.211C205.363 368.04 205.406 367.794 205.171 367.655L199.072 364.135C198.825 363.996 198.397 364.018 198.109 364.189L191.196 368.179C190.907 368.35 190.864 368.597 191.1 368.736L197.199 372.255C197.445 372.394 197.873 372.373 198.162 372.202ZM315.065 308.26C314.819 308.121 314.391 308.143 314.102 308.314L307.189 312.304C306.9 312.475 306.857 312.721 307.093 312.86L313.192 316.38C313.438 316.519 313.866 316.498 314.155 316.327L321.068 312.336C321.357 312.165 321.399 311.919 321.164 311.78L315.065 308.26ZM367.732 277.857C367.486 277.718 367.058 277.739 366.769 277.91L359.857 281.901C359.568 282.072 359.525 282.318 359.761 282.457L365.86 285.977C366.106 286.116 366.534 286.094 366.823 285.923L373.735 281.933C374.024 281.762 374.067 281.516 373.832 281.376L367.732 277.857ZM383.944 275.546L368.246 266.485C368 266.346 367.572 266.367 367.283 266.538L360.37 270.529C360.082 270.7 360.028 270.946 360.274 271.085L375.972 280.146C376.218 280.285 376.646 280.264 376.935 280.093L383.847 276.102C384.136 275.931 384.179 275.685 383.944 275.546ZM277.303 330.063C277.067 329.924 276.629 329.945 276.34 330.116L267.833 335.026C267.544 335.198 267.501 335.444 267.737 335.583L273.836 339.102C274.082 339.241 274.51 339.22 274.799 339.049L283.306 334.139C283.595 333.967 283.648 333.721 283.402 333.582L277.303 330.063ZM302.834 315.321C302.588 315.182 302.16 315.203 301.871 315.374L291.235 321.515C290.946 321.686 290.903 321.932 291.138 322.071L297.238 325.591C297.473 325.73 297.912 325.709 298.201 325.537L308.837 319.397C309.126 319.226 309.169 318.98 308.933 318.841L302.834 315.321ZM253.89 343.574C253.655 343.435 253.216 343.456 252.927 343.628L196.011 376.481C195.722 376.652 195.669 376.898 195.915 377.037L202.014 380.557C202.25 380.696 202.688 380.674 202.977 380.503L259.893 347.65C260.182 347.479 260.235 347.233 259.989 347.094L253.89 343.574ZM193.775 378.267C193.539 378.128 193.101 378.15 192.812 378.321L184.305 383.231C184.016 383.402 183.973 383.648 184.209 383.788L190.308 387.307C190.554 387.446 190.982 387.425 191.271 387.254L199.778 382.343C200.067 382.172 200.11 381.926 199.874 381.787L193.775 378.267ZM265.586 336.813C265.35 336.674 264.912 336.695 264.623 336.867L256.116 341.777C255.827 341.948 255.773 342.194 256.02 342.333L262.119 345.853C262.354 345.992 262.793 345.97 263.082 345.799L271.589 340.889C271.878 340.718 271.92 340.472 271.685 340.333L265.586 336.813ZM182.069 385.018C181.833 384.879 181.394 384.9 181.106 385.071L172.599 389.982C172.31 390.153 172.267 390.399 172.502 390.538L178.602 394.058C178.848 394.197 179.276 394.175 179.565 394.004L188.072 389.094C188.36 388.923 188.414 388.677 188.168 388.537L182.069 385.018ZM288.988 323.302C288.752 323.162 288.314 323.184 288.025 323.355L279.518 328.265C279.229 328.437 279.186 328.683 279.421 328.822L285.521 332.341C285.756 332.48 286.195 332.459 286.484 332.288L294.991 327.377C295.28 327.206 295.322 326.96 295.087 326.821L288.988 323.302ZM325.166 302.419C324.92 302.28 324.492 302.302 324.203 302.473L317.29 306.463C317.001 306.634 316.959 306.88 317.194 307.019L323.293 310.539C323.529 310.678 323.967 310.657 324.256 310.485L331.169 306.495C331.458 306.324 331.501 306.078 331.265 305.939L325.166 302.419ZM347.113 286.223L354.025 282.232C354.314 282.061 354.368 281.815 354.121 281.676L348.022 278.156C347.787 278.017 347.348 278.039 347.059 278.21L340.147 282.2C339.858 282.371 339.815 282.617 340.05 282.756L346.15 286.276C346.385 286.415 346.824 286.394 347.113 286.223ZM305.584 288.041L312.497 284.051C312.786 283.88 312.828 283.634 312.593 283.495L306.494 279.975C306.258 279.836 305.819 279.857 305.531 280.029L298.618 284.019C298.318 284.19 298.286 284.436 298.522 284.575L304.621 288.095C304.867 288.234 305.295 288.212 305.584 288.041ZM279.026 325.527L299.239 313.855C299.528 313.684 299.57 313.438 299.335 313.299L293.236 309.779C293 309.64 292.562 309.662 292.273 309.833L272.06 321.504C271.771 321.675 271.728 321.922 271.963 322.061L278.062 325.58C278.309 325.719 278.737 325.698 279.026 325.527ZM336.038 292.117C336.273 292.256 336.712 292.235 337.001 292.064L343.913 288.073C344.202 287.902 344.256 287.656 344.009 287.517L337.91 283.997C337.675 283.858 337.236 283.88 336.947 284.051L330.035 288.041C329.746 288.212 329.703 288.458 329.938 288.598L336.038 292.117ZM327.413 286.522L334.326 282.532C334.614 282.361 334.657 282.115 334.422 281.976L328.323 278.456C328.087 278.317 327.648 278.338 327.36 278.509L320.447 282.5C320.158 282.671 320.105 282.917 320.351 283.056L326.45 286.576C326.685 286.715 327.124 286.693 327.413 286.522ZM268.914 331.368L275.826 327.377C276.115 327.206 276.158 326.96 275.922 326.821L269.823 323.302C269.588 323.162 269.149 323.184 268.86 323.355L261.948 327.345C261.659 327.517 261.616 327.763 261.851 327.902L267.951 331.421C268.197 331.56 268.625 331.539 268.914 331.368ZM313.695 305.019C313.941 305.158 314.369 305.137 314.658 304.965L321.571 300.975C321.859 300.804 321.902 300.558 321.667 300.419L315.568 296.899C315.322 296.76 314.894 296.781 314.605 296.953L307.692 300.943C307.403 301.114 307.36 301.36 307.596 301.499L313.695 305.019ZM218.375 360.541L225.288 356.551C225.577 356.38 225.619 356.133 225.384 355.994L219.285 352.475C219.049 352.336 218.611 352.357 218.322 352.528L211.409 356.519C211.12 356.69 211.078 356.936 211.313 357.075L217.412 360.594C217.648 360.734 218.086 360.712 218.375 360.541ZM228.487 354.711L235.4 350.72C235.689 350.549 235.731 350.303 235.496 350.164L229.397 346.644C229.161 346.505 228.723 346.527 228.434 346.698L221.521 350.688C221.232 350.859 221.189 351.105 221.425 351.244L227.524 354.764C227.77 354.903 228.198 354.882 228.487 354.711ZM208.274 366.382L215.187 362.392C215.475 362.221 215.518 361.975 215.283 361.835L209.184 358.316C208.937 358.177 208.509 358.198 208.221 358.369L201.308 362.36C201.019 362.531 200.976 362.777 201.212 362.916L207.311 366.436C207.557 366.575 207.985 366.553 208.274 366.382ZM248.7 343.05L255.613 339.06C255.902 338.888 255.955 338.642 255.709 338.503L249.61 334.984C249.375 334.845 248.936 334.866 248.647 335.037L241.734 339.028C241.445 339.199 241.403 339.445 241.638 339.584L247.737 343.103C247.983 343.242 248.411 343.221 248.7 343.05ZM238.588 348.88L245.501 344.89C245.79 344.719 245.843 344.473 245.597 344.334L239.498 340.814C239.263 340.675 238.824 340.696 238.535 340.868L231.622 344.858C231.334 345.029 231.291 345.275 231.526 345.414L237.625 348.934C237.861 349.073 238.3 349.051 238.588 348.88ZM258.802 337.209L265.714 333.219C266.003 333.047 266.046 332.801 265.81 332.662L259.711 329.143C259.476 329.004 259.037 329.025 258.748 329.196L251.836 333.186C251.547 333.358 251.504 333.604 251.739 333.743L257.839 337.262C258.085 337.401 258.513 337.38 258.802 337.209ZM314.647 256.45C314.893 256.589 315.322 256.568 315.61 256.397L322.523 252.407C322.812 252.235 322.855 251.989 322.619 251.85L320.993 250.909C320.757 250.77 320.319 250.791 320.03 250.962L313.117 254.953C312.828 255.124 312.785 255.37 313.021 255.509L314.647 256.45ZM264.227 288.138C264.462 288.277 264.901 288.255 265.19 288.084L272.102 284.094C272.391 283.923 272.434 283.677 272.199 283.537L266.099 280.018C265.864 279.879 265.425 279.9 265.136 280.071L258.224 284.062C257.935 284.233 257.881 284.479 258.127 284.618L264.227 288.138ZM284.44 276.466C284.675 276.605 285.114 276.584 285.403 276.413L292.315 272.422C292.615 272.251 292.647 272.005 292.412 271.866L286.313 268.346C286.077 268.207 285.638 268.229 285.35 268.4L278.437 272.39C278.148 272.561 278.105 272.807 278.341 272.947L284.44 276.466ZM251.878 295.262C252.125 295.401 252.553 295.38 252.841 295.209L259.754 291.219C260.043 291.047 260.086 290.801 259.85 290.662L253.751 287.143C253.516 287.004 253.077 287.025 252.788 287.196L245.875 291.186C245.587 291.358 245.544 291.604 245.779 291.743L251.878 295.262ZM274.328 282.307C274.563 282.446 275.002 282.425 275.291 282.254L282.204 278.263C282.492 278.092 282.535 277.846 282.3 277.707L276.201 274.187C275.965 274.048 275.526 274.07 275.238 274.241L268.325 278.231C268.036 278.402 267.983 278.649 268.229 278.788L274.328 282.307ZM231.665 306.934C231.911 307.073 232.339 307.051 232.628 306.88L239.541 302.89C239.83 302.719 239.872 302.473 239.637 302.334L233.538 298.814C233.292 298.675 232.864 298.696 232.575 298.868L225.662 302.858C225.373 303.029 225.331 303.275 225.566 303.414L231.665 306.934ZM241.777 301.103C242.023 301.242 242.451 301.221 242.74 301.05L249.653 297.06C249.942 296.888 249.984 296.642 249.749 296.503L243.65 292.984C243.404 292.845 242.976 292.866 242.687 293.037L235.774 297.027C235.485 297.199 235.443 297.445 235.678 297.584L241.777 301.103ZM294.434 268.122C294.67 268.261 295.108 268.239 295.397 268.068L302.31 264.078C302.599 263.907 302.641 263.661 302.406 263.522L300.78 262.58C300.544 262.441 300.105 262.463 299.817 262.634L292.904 266.624C292.615 266.795 292.562 267.041 292.808 267.18L294.434 268.122ZM324.759 250.62C325.005 250.759 325.433 250.738 325.722 250.566L332.635 246.576C332.924 246.405 332.967 246.159 332.731 246.02L331.105 245.078C330.859 244.939 330.431 244.961 330.142 245.132L323.229 249.122C322.94 249.293 322.897 249.539 323.133 249.679L324.759 250.62ZM337.579 258.012C337.825 258.151 338.253 258.13 338.542 257.959L345.454 253.968C345.743 253.797 345.786 253.551 345.55 253.412L339.451 249.893C339.216 249.753 338.777 249.775 338.488 249.946L331.576 253.936C331.287 254.107 331.244 254.354 331.479 254.493L337.579 258.012ZM357.225 280.403L364.137 276.413C364.426 276.241 364.479 275.995 364.233 275.856L358.134 272.337C357.899 272.198 357.46 272.219 357.171 272.39L350.259 276.381C349.97 276.552 349.927 276.798 350.162 276.937L356.262 280.456C356.497 280.596 356.936 280.574 357.225 280.403ZM304.557 262.281C304.792 262.42 305.231 262.398 305.52 262.227L312.432 258.237C312.721 258.066 312.764 257.82 312.529 257.681L310.902 256.739C310.656 256.6 310.228 256.621 309.939 256.793L303.027 260.783C302.738 260.954 302.695 261.2 302.93 261.339L304.557 262.281ZM221.575 312.764C221.81 312.903 222.249 312.882 222.538 312.711L229.45 308.72C229.739 308.549 229.793 308.303 229.547 308.164L223.447 304.644C223.212 304.505 222.773 304.527 222.484 304.698L215.572 308.688C215.283 308.859 215.24 309.105 215.475 309.245L221.575 312.764Z" fill="#455A64"/>
<path d="M252.51 364.949L253.933 365.772L291.599 387.5L358.573 348.848L359.964 348.046L320.886 325.495L252.51 364.949Z" fill="#263238"/>
<path d="M357.952 349.201L320.886 327.827L254.554 366.125L291.599 387.5L357.952 349.201Z" fill="#37474F"/>
<path d="M400.262 51.4677C400.262 48.6541 399.277 46.6643 397.683 45.7229C396.067 44.7708 386.736 39.3897 385.11 38.4697C383.505 37.5497 381.29 37.6887 378.839 39.1009L204.144 139.939V197.74L216.663 204.961L391.359 104.123C396.27 101.288 400.251 94.3877 400.251 88.7178V51.457L400.262 51.4677Z" fill="#27DEBF"/>
<path opacity="0.15" d="M400.262 51.4677C400.262 48.6541 399.277 46.6643 397.683 45.7229C396.067 44.7708 386.736 39.3897 385.11 38.4697C383.505 37.5497 381.29 37.6887 378.839 39.1009L204.144 139.939V197.74L216.663 204.961L391.359 104.123C396.27 101.288 400.251 94.3877 400.251 88.7178V51.457L400.262 51.4677Z" fill="#111111"/>
<path d="M391.359 46.3327C396.27 43.4977 400.251 45.7978 400.251 51.4677V88.7285C400.251 94.3984 396.27 101.299 391.359 104.133L216.663 204.972V147.171L391.359 46.3327Z" fill="#27DEBF"/>
<path d="M389.572 99.3729C392.868 97.4687 395.564 92.7937 395.564 88.9852V54.5593C395.564 51.8421 393.638 50.7402 391.295 52.0881L220.194 150.926V197.205L389.572 99.3622V99.3729Z" fill="#FAFAFA"/>
<path d="M250.006 168.663C250.006 168.931 249.942 169.198 249.813 169.455C249.685 169.722 249.535 169.904 249.364 170.001L246.41 171.701C246.239 171.798 246.089 171.787 245.961 171.669C245.833 171.552 245.779 171.359 245.779 171.092V161.956C245.779 160.918 245.619 160.18 245.287 159.752C244.955 159.313 244.442 159.303 243.735 159.709C243.029 160.116 242.515 160.725 242.194 161.538C241.873 162.352 241.713 163.272 241.713 164.309V173.445C241.713 173.713 241.649 173.98 241.52 174.237C241.392 174.504 241.253 174.686 241.071 174.782L238.118 176.483C237.946 176.58 237.797 176.569 237.668 176.451C237.54 176.334 237.476 176.141 237.476 175.874V152.188C237.476 151.921 237.54 151.654 237.668 151.397C237.797 151.129 237.936 150.948 238.118 150.851L241.071 149.15C241.242 149.054 241.392 149.065 241.52 149.182C241.649 149.3 241.713 149.493 241.713 149.76V157.452C241.98 156.789 242.398 156.072 242.954 155.269C243.521 154.478 244.163 153.868 244.902 153.44C245.651 153.012 246.336 152.777 246.967 152.734C247.587 152.702 248.123 152.884 248.572 153.301C249.021 153.718 249.364 154.371 249.61 155.259C249.856 156.147 249.984 157.302 249.984 158.725V168.653L250.006 168.663Z" fill="#455A64"/>
<path d="M258.127 157.623C258.127 158.179 258.202 158.564 258.363 158.768C258.523 158.982 258.78 158.982 259.133 158.768L261.006 157.687C261.177 157.591 261.327 157.602 261.455 157.719C261.584 157.837 261.637 158.03 261.637 158.297V161.945C261.637 162.212 261.573 162.48 261.455 162.737C261.327 163.004 261.177 163.186 261.006 163.282L258.78 164.566C258.042 164.994 257.378 165.219 256.769 165.24C256.159 165.261 255.656 165.09 255.228 164.716C254.81 164.341 254.479 163.785 254.243 163.047C254.008 162.309 253.89 161.378 253.89 160.276V154.21L252.157 155.216C251.985 155.312 251.836 155.302 251.707 155.184C251.579 155.066 251.525 154.874 251.525 154.606V150.958C251.525 150.691 251.589 150.423 251.707 150.167C251.836 149.899 251.985 149.717 252.157 149.621L253.89 148.615V142.732C253.89 142.464 253.954 142.197 254.072 141.94C254.2 141.672 254.35 141.491 254.521 141.394L257.475 139.693C257.646 139.597 257.796 139.608 257.924 139.725C258.053 139.843 258.106 140.036 258.106 140.303V146.187L260.76 144.657C260.931 144.561 261.081 144.572 261.209 144.689C261.338 144.807 261.391 144.999 261.391 145.267V148.915C261.391 149.182 261.327 149.45 261.209 149.707C261.081 149.974 260.931 150.156 260.76 150.252L258.106 151.782V157.634L258.127 157.623Z" fill="#455A64"/>
<path d="M269.245 151.204C269.245 151.761 269.32 152.146 269.481 152.349C269.641 152.563 269.898 152.563 270.251 152.349L272.124 151.268C272.295 151.172 272.445 151.183 272.573 151.301C272.702 151.418 272.755 151.611 272.755 151.878V155.526C272.755 155.794 272.691 156.061 272.573 156.318C272.445 156.585 272.295 156.767 272.124 156.863L269.898 158.147C269.16 158.575 268.496 158.8 267.886 158.821C267.287 158.843 266.773 158.671 266.345 158.297C265.928 157.923 265.596 157.366 265.361 156.628C265.126 155.879 265.008 154.959 265.008 153.847V147.781L263.274 148.787C263.103 148.883 262.953 148.872 262.825 148.754C262.697 148.637 262.643 148.444 262.643 148.177V144.529C262.643 144.261 262.707 144.005 262.825 143.737C262.953 143.47 263.103 143.288 263.274 143.192L265.008 142.186V136.302C265.008 136.035 265.072 135.778 265.19 135.51C265.318 135.243 265.468 135.061 265.639 134.965L268.593 133.264C268.764 133.168 268.914 133.178 269.042 133.296C269.17 133.414 269.224 133.606 269.224 133.874V139.758L271.878 138.228C272.049 138.131 272.199 138.142 272.327 138.26C272.455 138.377 272.509 138.57 272.509 138.837V142.485C272.509 142.753 272.445 143.02 272.327 143.277C272.199 143.545 272.049 143.726 271.878 143.823L269.224 145.353V151.204H269.245Z" fill="#455A64"/>
<path d="M282.129 151.461C281.679 151.728 281.273 151.878 280.93 151.932C280.588 151.985 280.288 151.975 280.042 151.9C279.796 151.825 279.582 151.718 279.411 151.557C279.239 151.408 279.1 151.247 278.993 151.097V158.789C278.993 159.057 278.929 159.324 278.801 159.581C278.672 159.848 278.523 160.03 278.351 160.126L275.398 161.838C275.227 161.934 275.077 161.924 274.949 161.806C274.82 161.688 274.756 161.496 274.756 161.228V137.543C274.756 137.276 274.82 137.019 274.949 136.751C275.077 136.484 275.227 136.302 275.398 136.206L278.234 134.569C278.405 134.473 278.555 134.483 278.683 134.601C278.811 134.719 278.865 134.911 278.865 135.179V136.013C279.004 135.692 279.154 135.35 279.325 134.997C279.486 134.633 279.689 134.28 279.935 133.938C280.181 133.596 280.47 133.253 280.823 132.922C281.176 132.59 281.615 132.269 282.129 131.969C282.835 131.563 283.498 131.338 284.119 131.306C284.74 131.274 285.296 131.456 285.756 131.873C286.227 132.29 286.601 132.932 286.89 133.799C287.179 134.665 287.34 135.799 287.372 137.201C287.383 137.554 287.393 138.035 287.393 138.645C287.393 139.255 287.393 139.747 287.372 140.121C287.34 141.555 287.179 142.881 286.89 144.079C286.601 145.278 286.227 146.358 285.756 147.321C285.285 148.273 284.74 149.107 284.119 149.803C283.488 150.498 282.824 151.055 282.129 151.461ZM283.188 142.111C283.231 141.416 283.231 140.731 283.188 140.089C283.145 139.276 282.963 138.645 282.653 138.196C282.343 137.746 281.818 137.736 281.08 138.164C280.738 138.367 280.438 138.624 280.192 138.934C279.946 139.244 279.732 139.586 279.571 139.961C279.411 140.335 279.282 140.71 279.186 141.105C279.09 141.501 279.025 141.876 279.004 142.261C278.972 142.635 278.961 143.074 278.961 143.555C278.961 144.037 278.972 144.443 279.004 144.796C279.036 145.139 279.1 145.449 279.186 145.738C279.282 146.016 279.411 146.251 279.571 146.433C279.732 146.615 279.946 146.722 280.192 146.743C280.438 146.765 280.738 146.679 281.08 146.486C281.818 146.059 282.343 145.449 282.653 144.646C282.963 143.844 283.145 142.999 283.188 142.132V142.111Z" fill="#455A64"/>
<path d="M293.899 130.696C293.899 130.964 293.835 131.231 293.717 131.488C293.589 131.755 293.439 131.937 293.268 132.034L290.197 133.809C290.026 133.906 289.876 133.895 289.747 133.777C289.619 133.66 289.565 133.467 289.565 133.2V128.471C289.565 128.204 289.63 127.947 289.747 127.68C289.876 127.412 290.015 127.23 290.197 127.134L293.268 125.358C293.439 125.262 293.589 125.273 293.717 125.39C293.846 125.508 293.899 125.7 293.899 125.968V130.696ZM293.899 143.331C293.899 143.598 293.835 143.855 293.717 144.122C293.589 144.39 293.439 144.572 293.268 144.668L290.197 146.444C290.026 146.54 289.876 146.529 289.747 146.412C289.619 146.294 289.565 146.101 289.565 145.834V141.105C289.565 140.838 289.63 140.571 289.747 140.314C289.876 140.046 290.015 139.864 290.197 139.768L293.268 137.992C293.439 137.896 293.589 137.907 293.717 138.024C293.846 138.142 293.899 138.335 293.899 138.602V143.331Z" fill="#455A64"/>
<path d="M303.658 111.376C303.733 111.066 303.851 110.755 304.011 110.435C304.172 110.114 304.396 109.868 304.696 109.696L307.606 108.017C307.746 107.931 307.863 107.942 307.97 108.038C308.067 108.134 308.12 108.295 308.12 108.509C308.12 108.605 308.109 108.723 308.077 108.862L300.17 142.635C300.105 142.913 299.998 143.213 299.838 143.545C299.677 143.876 299.442 144.133 299.132 144.315L296.275 145.962C296.136 146.048 296.007 146.037 295.911 145.941C295.804 145.845 295.761 145.684 295.761 145.47C295.761 145.374 295.772 145.256 295.804 145.117L303.658 111.365V111.376Z" fill="#455A64"/>
<path d="M311.705 106.722C311.78 106.412 311.897 106.102 312.058 105.781C312.218 105.46 312.443 105.214 312.743 105.043L315.653 103.363C315.792 103.278 315.91 103.288 316.017 103.385C316.113 103.481 316.167 103.641 316.167 103.855C316.167 103.952 316.156 104.069 316.124 104.208L308.216 137.982C308.152 138.26 308.045 138.559 307.885 138.891C307.724 139.223 307.489 139.479 307.178 139.661L304.311 141.309C304.172 141.394 304.054 141.384 303.947 141.287C303.84 141.191 303.797 141.031 303.797 140.817C303.797 140.72 303.808 140.603 303.84 140.464L311.694 106.712L311.705 106.722Z" fill="#455A64"/>
<path d="M327.21 106.294C327.445 106.155 327.627 106.155 327.745 106.273C327.873 106.391 327.959 106.54 328.002 106.701L329.735 113.901L331.468 104.7C331.511 104.476 331.597 104.24 331.725 103.973C331.854 103.706 332.025 103.502 332.26 103.374L335.171 101.694C335.331 101.609 335.46 101.609 335.567 101.716C335.674 101.823 335.727 101.994 335.727 102.24C335.727 102.336 335.727 102.432 335.706 102.539L331.971 121.411C331.929 121.657 331.843 121.903 331.725 122.17C331.608 122.427 331.436 122.63 331.201 122.769L328.526 124.31C328.29 124.449 328.119 124.449 328.012 124.31C327.905 124.181 327.82 124.021 327.755 123.85L326.086 117.228L324.417 125.775C324.353 126.032 324.267 126.278 324.16 126.535C324.053 126.792 323.882 126.984 323.646 127.123L320.971 128.664C320.736 128.803 320.565 128.803 320.447 128.674C320.329 128.546 320.244 128.396 320.201 128.204L316.466 113.633C316.456 113.548 316.445 113.451 316.445 113.355C316.445 113.12 316.499 112.874 316.606 112.649C316.713 112.414 316.852 112.253 317.001 112.168L319.912 110.488C320.147 110.349 320.329 110.349 320.447 110.467C320.575 110.584 320.661 110.734 320.704 110.895L322.437 118.094L324.171 108.894C324.214 108.68 324.299 108.434 324.428 108.167C324.556 107.899 324.738 107.696 324.963 107.568L327.167 106.294H327.21Z" fill="#455A64"/>
<path d="M347.53 94.5695C347.765 94.4305 347.947 94.4305 348.065 94.5481C348.183 94.6658 348.279 94.8156 348.322 94.9761L350.055 102.165L351.789 92.9648C351.831 92.7509 351.917 92.5048 352.045 92.2374C352.174 91.9699 352.356 91.7667 352.58 91.6383L355.491 89.9587C355.652 89.8731 355.78 89.8732 355.887 89.9801C355.994 90.0871 356.047 90.2583 356.047 90.5043C356.047 90.6006 356.047 90.6969 356.026 90.8039L352.292 109.675C352.249 109.921 352.163 110.167 352.045 110.435C351.928 110.691 351.757 110.895 351.521 111.034L348.846 112.574C348.611 112.713 348.439 112.713 348.332 112.574C348.225 112.446 348.14 112.285 348.076 112.114L346.406 105.492L344.737 114.04C344.673 114.296 344.587 114.543 344.48 114.799C344.373 115.056 344.202 115.249 343.967 115.388L341.292 116.928C341.056 117.067 340.885 117.067 340.767 116.939C340.649 116.81 340.564 116.661 340.521 116.468L336.787 101.898C336.776 101.812 336.765 101.716 336.765 101.619C336.765 101.384 336.819 101.138 336.926 100.913C337.033 100.678 337.172 100.518 337.322 100.432L340.232 98.7524C340.468 98.6133 340.649 98.6133 340.767 98.731C340.885 98.8487 340.981 98.9985 341.024 99.1589L342.757 106.348L344.491 97.1477C344.534 96.9231 344.619 96.6877 344.748 96.4203C344.876 96.1528 345.047 95.9496 345.283 95.8212L347.487 94.5481L347.53 94.5695Z" fill="#455A64"/>
<path d="M367.839 82.8446C368.075 82.7056 368.257 82.7056 368.374 82.8232C368.503 82.9409 368.588 83.0907 368.631 83.2511L370.365 90.4508L372.098 81.2506C372.141 81.0367 372.227 80.7906 372.355 80.5232C372.483 80.2557 372.655 80.0632 372.89 79.9241L375.801 78.2445C375.961 78.1482 376.089 78.1589 376.196 78.2659C376.303 78.3729 376.357 78.5441 376.357 78.7901C376.357 78.8864 376.357 78.9827 376.336 79.0897L372.601 97.9608C372.558 98.2068 372.473 98.4529 372.355 98.7203C372.237 98.9771 372.066 99.1803 371.831 99.3087L369.156 100.849C368.92 100.988 368.749 100.988 368.642 100.849C368.535 100.721 368.449 100.56 368.385 100.389L366.716 93.7672L365.047 102.315C364.982 102.572 364.897 102.818 364.79 103.074C364.683 103.331 364.512 103.524 364.276 103.663L361.601 105.203C361.366 105.342 361.194 105.342 361.077 105.214C360.959 105.086 360.873 104.936 360.831 104.743L357.096 90.1727C357.085 90.0871 357.075 89.9908 357.075 89.8946C357.075 89.6592 357.128 89.4131 357.235 89.1885C357.342 88.9531 357.481 88.7927 357.631 88.7071L360.542 87.0275C360.777 86.8884 360.959 86.8884 361.077 87.0061C361.205 87.1238 361.291 87.2736 361.333 87.434L363.067 94.6337L364.8 85.4335C364.843 85.2089 364.929 84.9735 365.057 84.7061C365.186 84.4386 365.368 84.2461 365.592 84.107L367.797 82.8339L367.839 82.8446Z" fill="#455A64"/>
<path d="M381.568 92.7295C381.568 92.9969 381.504 93.2644 381.375 93.5211C381.247 93.7886 381.097 93.9705 380.926 94.0667L377.855 95.8426C377.684 95.9389 377.534 95.9282 377.406 95.8105C377.277 95.6928 377.224 95.5002 377.224 95.2328V90.5043C377.224 90.2369 377.288 89.9694 377.406 89.7127C377.534 89.4452 377.684 89.2634 377.855 89.1671L380.926 87.3912C381.097 87.295 381.247 87.3057 381.375 87.4233C381.504 87.541 381.568 87.7336 381.568 88.001V92.7295Z" fill="#455A64"/>
<path d="M208.959 130.343L208.873 130.29L187.462 117.581C187.462 117.581 187.451 117.581 187.44 117.57L187.322 117.495C177.895 111.815 165.312 112.713 151.775 121.55C124.586 139.298 103.869 182.335 105.507 217.692C106.32 235.311 112.537 247.689 121.921 253.487L122.007 253.541L143.418 266.25L143.515 266.314C152.942 272.005 165.536 271.117 179.083 262.281C206.273 244.533 226.989 201.495 225.352 166.139C224.539 148.519 218.322 136.142 208.937 130.354L208.959 130.343Z" fill="#37474F"/>
<path d="M142.755 265.8L122.039 253.53H122.028L121.943 253.466C112.558 247.657 106.341 235.279 105.528 217.692C104.8 201.923 108.524 184.646 115.265 168.76L115.405 168.407L136.688 181.458C129.936 197.334 126.223 214.621 126.95 230.39C127.742 247.635 133.713 259.852 142.776 265.8H142.755Z" fill="#263238"/>
<path d="M179.115 262.27C206.305 244.522 227.01 201.484 225.384 166.128C223.758 130.782 200.388 116.511 173.208 134.259C146.019 152.007 125.302 195.044 126.94 230.401C128.577 265.747 151.936 280.018 179.115 262.27Z" fill="#455A64"/>
<path d="M163.771 252.931C160.133 252.931 156.708 252.053 153.637 250.278C145.077 245.357 140.165 234.06 140.165 219.296C140.165 192.134 156.676 160.437 176.975 148.637C186.21 143.266 195.219 142.582 202.367 146.69C210.928 151.611 215.839 162.908 215.839 177.671C215.839 204.833 199.328 236.531 179.03 248.331C173.776 251.39 168.586 252.931 163.771 252.931ZM192.223 148.145C188.125 148.145 183.631 149.493 179.03 152.178C159.854 163.325 144.253 193.44 144.253 219.307C144.253 232.562 148.416 242.564 155.67 246.737C161.491 250.085 169.057 249.4 176.964 244.8C196.14 233.642 211.741 203.538 211.741 177.671C211.741 164.416 207.578 154.414 200.324 150.241C197.895 148.84 195.155 148.145 192.223 148.145Z" fill="#27DEBF"/>
<path d="M163.771 185.02C159.266 185.02 155.125 183.619 151.551 180.816L153.445 178.398C159.694 183.298 168.147 183.084 177.243 177.799C186.659 172.322 195.508 162.17 202.164 149.225L204.893 150.627C197.98 164.085 188.703 174.675 178.783 180.452C173.551 183.491 168.468 185.02 163.771 185.02Z" fill="#27DEBF"/>
<path d="M153.851 247.742L151.123 246.341C158.035 232.883 167.313 222.292 177.232 216.526C187.483 210.567 197.156 210.439 204.465 216.162L202.571 218.58C196.311 213.68 187.868 213.894 178.773 219.179C169.356 224.656 160.507 234.798 153.851 247.742Z" fill="#27DEBF"/>
<path d="M174.043 249.272C172.62 249.272 171.229 248.887 169.902 248.127C162.69 243.977 158.206 229.032 158.206 209.112C158.206 181.661 166.564 155.291 177.243 149.086C180.26 147.332 183.331 147.246 186.124 148.851C193.336 153.002 197.82 167.947 197.82 187.866C197.82 215.317 189.463 241.687 178.783 247.892C177.2 248.812 175.605 249.272 174.043 249.272ZM181.962 150.776C180.945 150.776 179.886 151.097 178.783 151.739C169.292 157.259 161.278 183.533 161.278 209.112C161.278 230.187 166.382 242.554 171.432 245.464C173.262 246.523 175.167 246.448 177.243 245.239C186.734 239.719 194.749 213.445 194.749 187.866C194.749 166.791 189.644 154.424 184.594 151.515C183.738 151.022 182.871 150.776 181.972 150.776H181.962Z" fill="#27DEBF"/>
<path d="M179.543 150.413H176.472V246.565H179.543V150.413Z" fill="#27DEBF"/>
<path d="M213.026 176.32L141.445 217.971L142.99 220.625L214.57 178.974L213.026 176.32Z" fill="#27DEBF"/>
<path d="M428.479 130.696C428.126 129.958 427.676 129.488 427.206 129.209L424.017 127.369C422.626 126.578 420.935 127.369 420.036 127.915L418.046 126.77C415.628 125.315 412.268 128.364 411.519 129.092L410.663 128.6C409.528 127.915 407.977 128.354 406.607 129.038V117.442C406.607 116.169 406.169 115.27 405.462 114.831L405.43 114.81C405.409 114.81 405.398 114.789 405.377 114.778L402.241 112.97H402.22V112.959C401.482 112.553 400.465 112.617 399.352 113.259C397.094 114.564 395.254 117.741 395.254 120.352V155.858C395.094 155.783 394.933 155.708 394.762 155.633C391.969 153.665 389.026 152.488 386.437 152.948C383.965 153.387 381.75 155.494 381.108 156.628C379.749 159.014 381.985 160.511 384.864 163.806C387.721 167.069 390.235 170.995 392.825 173.413C395.425 175.831 397.309 176.462 397.309 176.462V181.105L400.465 182.934L424.52 169.048V164.405C424.52 164.405 427.505 152.509 428.458 147.535C429.41 142.56 430.287 134.516 428.458 130.696H428.479Z" fill="#27DEBF"/>
<path opacity="0.8" d="M428.479 130.696C428.126 129.958 427.676 129.488 427.206 129.209L424.017 127.369C422.626 126.578 420.935 127.369 420.036 127.915L418.046 126.77C415.628 125.315 412.268 128.364 411.519 129.092L410.663 128.6C409.528 127.915 407.977 128.354 406.607 129.038V117.442C406.607 116.169 406.169 115.27 405.462 114.831L405.43 114.81C405.409 114.81 405.398 114.789 405.377 114.778L402.241 112.97H402.22V112.959C401.482 112.553 400.465 112.617 399.352 113.259C397.094 114.564 395.254 117.741 395.254 120.352V155.858C395.094 155.783 394.933 155.708 394.762 155.633C391.969 153.665 389.026 152.488 386.437 152.948C383.965 153.387 381.75 155.494 381.108 156.628C379.749 159.014 381.985 160.511 384.864 163.806C387.721 167.069 390.235 170.995 392.825 173.413C395.425 175.831 397.309 176.462 397.309 176.462V181.105L400.465 182.934L424.52 169.048V164.405C424.52 164.405 427.505 152.509 428.458 147.535C429.41 142.56 430.287 134.516 428.458 130.696H428.479Z" fill="white"/>
<path opacity="0.2" d="M406.618 129.07V133.007C406.746 132.889 408.105 131.713 409.71 130.889L406.618 129.081V129.07ZM421.149 127.359C420.721 127.53 420.347 127.722 420.047 127.904L421.064 128.503C421.631 128.792 422.144 129.327 422.572 130.161C422.572 130.161 423.353 129.53 424.391 129.145L421.138 127.359H421.149ZM413.659 127.391C412.653 128.022 411.85 128.76 411.519 129.081L413.605 130.29C413.605 130.29 413.691 130.322 413.723 130.354C414.023 130.504 414.29 130.739 414.526 131.06C414.622 130.953 415.521 130.033 416.741 129.252L413.648 127.391H413.659ZM395.265 120.33V155.836C396.324 156.35 397.383 157.013 398.432 157.784V122.149L395.265 120.319V120.33ZM395.992 175.21C393.392 172.793 390.878 168.867 388.031 165.604C385.335 162.512 383.184 161.004 384.072 158.853L380.905 157.024C380.027 159.174 382.157 160.683 384.864 163.785C387.721 167.037 390.225 170.963 392.825 173.392C395.425 175.809 397.308 176.441 397.308 176.441V181.084L400.476 182.913V178.27C400.476 178.27 398.593 177.639 395.992 175.21Z" fill="#27DEBF"/>
<path opacity="0.1" d="M406.618 129.07V133.007C406.746 132.889 408.105 131.713 409.71 130.889L406.618 129.081V129.07ZM421.149 127.359C420.721 127.53 420.347 127.722 420.047 127.904L421.064 128.503C421.631 128.792 422.144 129.327 422.572 130.161C422.572 130.161 423.353 129.53 424.391 129.145L421.138 127.359H421.149ZM413.659 127.391C412.653 128.022 411.85 128.76 411.519 129.081L413.605 130.29C413.605 130.29 413.691 130.322 413.723 130.354C414.023 130.504 414.29 130.739 414.526 131.06C414.622 130.953 415.521 130.033 416.741 129.252L413.648 127.391H413.659ZM395.265 120.33V155.836C396.324 156.35 397.383 157.013 398.432 157.784V122.149L395.265 120.319V120.33ZM395.992 175.21C393.392 172.793 390.878 168.867 388.031 165.604C385.335 162.512 383.184 161.004 384.072 158.853L380.905 157.024C380.027 159.174 382.157 160.683 384.864 163.785C387.721 167.037 390.225 170.963 392.825 173.392C395.425 175.809 397.308 176.441 397.308 176.441V181.084L400.476 182.913V178.27C400.476 178.27 398.593 177.639 395.992 175.21Z" fill="#111111"/>
<path d="M400.487 182.934V178.291C400.487 178.291 398.603 177.66 396.003 175.242C393.403 172.825 390.888 168.888 388.042 165.636C385.163 162.341 382.927 160.843 384.286 158.457C384.928 157.323 387.143 155.216 389.615 154.777C392.365 154.285 395.489 155.633 398.432 157.816V122.181C398.432 119.571 400.262 116.393 402.53 115.088C404.788 113.783 406.629 114.842 406.629 117.452V133.018C406.629 133.018 412.268 128.011 414.547 131.082C414.547 131.082 420.09 125.273 422.594 130.183C422.594 130.183 426.66 126.899 428.5 130.707C430.33 134.516 429.453 142.571 428.5 147.546C427.548 152.52 424.563 164.416 424.563 164.416V169.059L400.508 182.945L400.487 182.934Z" fill="#27DEBF"/>
<path opacity="0.65" d="M400.487 182.934V178.291C400.487 178.291 398.603 177.66 396.003 175.242C393.403 172.825 390.888 168.888 388.042 165.636C385.163 162.341 382.927 160.843 384.286 158.457C384.928 157.323 387.143 155.216 389.615 154.777C392.365 154.285 395.489 155.633 398.432 157.816V122.181C398.432 119.571 400.262 116.393 402.53 115.088C404.788 113.783 406.629 114.842 406.629 117.452V133.018C406.629 133.018 412.268 128.011 414.547 131.082C414.547 131.082 420.09 125.273 422.594 130.183C422.594 130.183 426.66 126.899 428.5 130.707C430.33 134.516 429.453 142.571 428.5 147.546C427.548 152.52 424.563 164.416 424.563 164.416V169.059L400.508 182.945L400.487 182.934Z" fill="white"/>
<g opacity="0.1">
<path d="M406.607 139.683C406.607 139.683 407.121 132.579 409.732 130.889C409.732 130.889 409.689 130.9 409.635 130.921C407.977 131.788 406.607 132.996 406.607 132.996V132.857C406.575 132.943 406.607 132.996 406.607 132.996V139.683Z" fill="#111111"/>
<path d="M414.536 131.071V137.564C414.536 137.564 415.253 130.889 416.751 129.274C415.478 130.087 414.536 131.06 414.536 131.071Z" fill="#111111"/>
<path d="M422.572 130.161V136.687C422.572 136.687 422.968 130.119 424.381 129.145C423.353 129.53 422.572 130.161 422.572 130.161Z" fill="#111111"/>
</g>
<path opacity="0.15" d="M347.091 316.744C328.611 325.955 320.222 335.626 329.789 342.397C339.355 349.18 365.389 358.348 365.389 358.348L368.802 369.816L406.629 347.982V334.994C406.629 334.994 383.291 318.905 374.185 315.813C365.068 312.711 357.931 311.331 347.102 316.733L347.091 316.744Z" fill="#111111"/>
<path d="M399.235 375.304C399.235 375.304 393.52 389.297 393.232 394.817C392.932 400.573 391.541 402.477 392.515 408.735C392.729 410.094 393.446 412.832 393.617 413.934C393.777 414.918 393.403 415.71 392.14 415.978C389.647 416.491 385.495 411.805 383.526 406.703C381.557 401.6 378.754 390.089 378.583 388.709C378.411 387.382 378.861 385.724 379.374 384.686C380.284 382.857 380.519 382.6 380.519 382.6C381.343 380.097 381.739 375.336 382.435 372.041L399.235 375.304Z" fill="#FFA8A7"/>
<path d="M373.703 393.951C373.703 393.951 373.072 395.095 373.04 395.833C372.976 396.978 375.576 400.765 376.592 402.134C377.609 403.515 378.604 405.237 378.465 408.671C378.315 412.34 379.942 415.881 382.306 418.909C384.682 421.936 388.802 425.253 394.858 427.125C400.925 428.986 403.055 425.948 403.055 425.948C403.055 425.948 404.938 423.028 403.804 421.829C402.669 420.631 373.703 393.94 373.703 393.94V393.951Z" fill="#263238"/>
<path d="M380.519 382.6C380.338 382.6 380.006 382.536 379.535 383.114C379.353 383.328 378.251 386.056 377.331 387.489C376.346 389.019 374.003 391.64 373.693 393.961C375.094 398.454 379.31 401.578 379.942 405.825C380.573 410.072 380.648 414.993 387.164 420.182C393.681 425.37 400.39 425.905 402.798 424.536C405.205 423.167 404.991 420.578 401.631 415.667C398.068 410.447 395.661 399.15 395.661 399.139C395.329 397.577 395.158 395.919 395.029 394.336C394.912 392.785 395.361 391.137 395.479 389.575C395.532 388.837 395.564 388.045 395.179 387.425C394.794 386.794 394.066 386.473 393.381 386.184C392.29 385.724 391.199 385.253 390.032 385.05C388.866 384.847 387.625 384.911 386.576 385.467C385.827 385.874 385.206 386.516 384.414 386.847C383.355 387.286 382.05 387.05 381.215 386.28C379.974 385.136 380.156 384.109 380.348 383.338C380.327 383.317 380.498 382.622 380.498 382.622L380.519 382.6Z" fill="#455A64"/>
<path d="M383.366 416.01C383.366 416.01 385.891 410.875 392.814 410.896C399.738 410.917 402.134 414.448 403.183 416.512C404.435 418.984 405.74 423.455 402.883 424.728C399.802 426.119 396.228 425.691 390.599 422.867C384.982 420.054 383.355 415.999 383.355 415.999L383.366 416.01Z" fill="#FAFAFA"/>
<path d="M384.628 395.159C384.821 395.256 385.056 395.256 385.26 395.159C386.33 394.614 391.99 393.426 395.286 396.486C395.714 396.144 395.628 395.513 395.083 394.635C391.231 392.185 385.87 393.277 384.575 393.94C384.232 394.111 384.115 394.528 384.307 394.86C384.382 394.999 384.5 395.095 384.628 395.159Z" fill="#FAFAFA"/>
<path d="M395.992 400.519C396.228 399.909 395.928 398.957 395.596 398.615C391.787 396.55 386.811 397.588 385.581 398.208C385.238 398.38 385.121 398.797 385.313 399.128C385.388 399.267 385.506 399.364 385.634 399.428C385.827 399.524 386.062 399.524 386.266 399.428C387.304 398.904 392.675 397.78 395.992 400.508V400.519Z" fill="#FAFAFA"/>
<path d="M398.817 409.869C398.849 409.024 398.539 408.179 397.929 407.366C394.088 405.055 388.855 406.125 387.582 406.767C387.239 406.938 387.122 407.355 387.314 407.687C387.389 407.826 387.507 407.922 387.635 407.986C387.828 408.083 388.063 408.083 388.267 407.986C389.401 407.409 395.639 406.125 398.817 409.869Z" fill="#FAFAFA"/>
<path d="M386.629 403.718C386.822 403.814 387.057 403.814 387.261 403.718C388.32 403.183 393.863 402.028 397.169 404.948C397.319 404.306 397.137 403.621 396.592 402.894C392.782 400.829 387.806 401.856 386.576 402.488C386.233 402.659 386.116 403.076 386.308 403.408C386.383 403.547 386.501 403.643 386.629 403.707V403.718Z" fill="#FAFAFA"/>
<path d="M405.387 392.485C405.387 392.485 408.223 409.559 411.369 416.181C414.515 422.803 416.131 426.002 420.475 431.019C421.417 432.11 423.567 434.143 424.338 435.02C425.023 435.801 425.14 436.71 424.156 437.652C422.23 439.492 414.055 439.93 409.464 436.496C404.884 433.062 400.711 425.745 397.972 422.985C396.945 421.947 395.982 420.888 395.061 419.754C394.173 418.663 394.419 417.636 394.344 416.416C394.302 415.828 394.387 414.223 394.387 414.223C393.756 411.345 392.065 406.842 391.166 404.039L405.387 392.485Z" fill="#FFA8A7"/>
<path d="M392.782 427.125C392.782 427.125 392.697 428.494 392.996 429.211C393.456 430.323 397.597 432.741 399.17 433.597C400.743 434.442 402.455 435.63 403.868 438.946C405.366 442.487 408.48 445.108 412.086 446.916C415.681 448.724 421.064 450.029 427.634 449.077C434.204 448.136 434.867 444.306 434.867 444.306C434.867 444.306 435.338 440.7 433.733 440.069C432.128 439.438 392.793 427.125 392.793 427.125H392.782Z" fill="#263238"/>
<path d="M394.163 413.335C393.981 413.41 393.649 413.506 393.456 414.266C393.381 414.555 393.553 417.625 393.328 419.39C393.082 421.273 392.033 424.803 392.782 427.136C396.121 430.762 401.503 431.832 403.996 435.565C406.49 439.299 408.758 443.921 417.243 445.921C425.729 447.922 432.32 445.44 433.979 443.054C435.648 440.679 434.279 438.336 428.907 435.18C423.204 431.832 415.874 422.214 415.874 422.204C414.857 420.877 413.958 419.39 413.135 417.935C412.332 416.523 412.011 414.758 411.433 413.228C411.155 412.501 410.834 411.741 410.181 411.324C409.528 410.907 408.705 410.918 407.934 410.95C406.704 411.003 405.452 411.046 404.253 411.367C403.055 411.688 401.91 412.308 401.171 413.303C400.636 414.02 400.347 414.908 399.748 415.571C398.946 416.459 397.608 416.823 396.463 416.459C394.783 415.924 394.494 414.876 394.334 414.063C394.302 414.052 394.163 413.325 394.163 413.325V413.335Z" fill="#455A64"/>
<path d="M411.786 443.685C411.786 443.685 411.883 437.694 418.442 434.635C425.001 431.564 428.843 433.832 430.769 435.319C433.059 437.095 436.29 440.743 434.161 443.236C431.86 445.921 428.286 447.119 421.706 446.959C415.125 446.798 411.786 443.696 411.786 443.696V443.685Z" fill="#FAFAFA"/>
<path d="M403.665 423.391C403.889 423.391 404.114 423.295 404.264 423.102C405.034 422.108 409.86 418.46 414.344 419.882C414.59 419.369 414.237 418.813 413.316 418.224C408.576 417.625 403.996 421.059 403.065 422.257C402.819 422.568 402.894 423.017 403.226 423.252C403.354 423.348 403.515 423.391 403.665 423.391Z" fill="#FAFAFA"/>
<path d="M416.816 423.381C416.762 422.696 416.067 421.936 415.585 421.754C411.059 421.498 406.811 424.696 405.922 425.852C405.676 426.162 405.751 426.611 406.083 426.847C406.211 426.943 406.372 426.986 406.522 426.986C406.746 426.986 406.971 426.889 407.121 426.697C407.87 425.734 412.45 422.279 416.816 423.381Z" fill="#FAFAFA"/>
<path d="M423.664 430.976C423.311 430.163 422.647 429.5 421.706 428.997C417.03 428.526 412.557 431.875 411.647 433.051C411.401 433.362 411.476 433.811 411.808 434.046C411.936 434.143 412.097 434.185 412.246 434.185C412.471 434.185 412.696 434.089 412.846 433.897C413.659 432.848 418.988 428.847 423.664 430.965V430.976Z" fill="#FAFAFA"/>
<path d="M409.389 430.591C409.614 430.591 409.839 430.495 409.989 430.302C410.748 429.318 415.478 425.755 419.919 427.039C419.78 426.365 419.298 425.798 418.453 425.36C413.926 425.103 409.678 428.302 408.79 429.457C408.544 429.767 408.619 430.217 408.951 430.452C409.079 430.548 409.24 430.591 409.389 430.591Z" fill="#FAFAFA"/>
<path d="M367.711 295.262C374.709 300.397 399.095 314.465 408.993 323.623C411.85 326.265 412.792 329.752 412.097 337.348C411.144 347.65 403.044 382.782 403.044 382.782C401.931 384.761 399.962 381.006 399.962 381.006L361.323 331.967L367.711 295.262Z" fill="#27DEBF"/>
<path opacity="0.3" d="M367.711 295.262C374.709 300.397 399.095 314.465 408.993 323.623C411.85 326.265 412.792 329.752 412.097 337.348C411.144 347.65 403.044 382.782 403.044 382.782C401.931 384.761 399.962 381.006 399.962 381.006L361.323 331.967L367.711 295.262Z" fill="#111111"/>
<path opacity="0.3" d="M401.364 371.849C392.429 364.382 363.549 318.83 363.549 318.83C363.549 318.83 363.549 318.83 363.559 318.819C367.497 315.492 369.519 303.981 369.519 303.981C371.082 308.421 369.434 315.128 368.225 317.578C370.504 319.547 383.344 330.105 392.269 337.177C394.505 338.953 396.795 341.135 397.565 345.168C399.406 354.828 401.578 369.912 401.364 371.859V371.849Z" fill="#111111"/>
<path d="M367.711 295.262L317.975 306.271C320.404 315.396 321.1 320.114 323.636 324.917C326.182 329.742 328.997 334.877 341.934 341.253C354.389 347.383 369.605 353.694 372.644 355.149C374.934 356.24 376.025 360.83 377.063 366.767C378.155 373.004 378.251 377.882 384.414 390.966C390.46 403.782 391.691 406.553 391.691 406.553C391.691 406.553 401.043 407.526 407.239 402.07C407.239 402.07 398.774 358.134 396.966 350.228C395.96 345.81 395.939 343.478 390.45 338.632C385.741 334.47 364.736 318.573 364.736 318.573C364.736 318.573 373.083 307.372 367.7 295.273L367.711 295.262Z" fill="#27DEBF"/>
<path opacity="0.3" d="M367.711 295.262L317.975 306.271C320.404 315.396 321.1 320.114 323.636 324.917C326.182 329.742 328.997 334.877 341.934 341.253C354.389 347.383 369.605 353.694 372.644 355.149C374.934 356.24 376.025 360.83 377.063 366.767C378.155 373.004 378.251 377.882 384.414 390.966C390.46 403.782 391.691 406.553 391.691 406.553C391.691 406.553 401.043 407.526 407.239 402.07C407.239 402.07 398.774 358.134 396.966 350.228C395.96 345.81 395.939 343.478 390.45 338.632C385.741 334.47 364.736 318.573 364.736 318.573C364.736 318.573 373.083 307.372 367.7 295.273L367.711 295.262Z" fill="#111111"/>
<path d="M424.884 212.664C424.049 212.578 423.182 212.803 422.423 213.156C421.513 213.584 420.71 214.204 419.897 214.803C418.656 215.713 417.393 216.579 416.088 217.403C414.932 218.13 413.712 218.943 412.343 219.179C411.883 219.254 410.898 219.275 411.401 218.569C412.054 217.66 412.792 216.793 413.284 215.777C413.777 214.771 413.991 213.562 413.563 212.525C413.434 212.214 413.231 211.904 412.921 211.765C412.482 211.562 412.268 211.797 412.011 212.086C411.743 212.386 411.433 212.642 411.134 212.91C410.513 213.455 409.892 214.012 409.282 214.568C405.708 217.82 401.353 220.634 399.823 225.33C399.598 226.015 398.593 229.106 398.561 234.263C398.528 239.419 398.218 257.36 398.218 257.36C398.218 257.36 383.965 245.378 377.78 240.211C374.795 237.718 370.632 234.701 366.042 234.263C362.789 233.953 360.895 233.974 360.895 233.974L370.611 257.531C370.611 257.531 388.994 271.203 397.801 275.91C405.751 280.157 409.625 277.097 410.588 274.872C412.182 271.181 413.819 269.448 411.572 248.823C411.412 247.229 411.208 242.661 411.037 241.067C410.802 237.74 411.187 234.359 412.471 233.632C414.847 232.305 417.169 230.85 419.212 229.064C420.561 227.887 421.781 226.55 422.776 225.063C423.193 224.442 423.921 223.522 423.996 222.763C424.07 221.982 423.739 221.169 423.974 220.398C424.135 219.874 424.488 219.446 424.616 218.89C424.884 217.756 424.787 216.451 425.515 215.467C425.911 214.921 426.574 214.44 426.489 213.776C426.414 213.241 425.868 212.91 425.344 212.781C425.194 212.749 425.033 212.717 424.884 212.707V212.664Z" fill="#FFA8A7"/>
<path d="M410.342 221.607C409.946 224.389 407.956 227.866 406.629 229.032C406.629 229.032 408.854 227.769 409.785 225.833C410.813 223.704 410.695 222.624 410.342 221.618V221.607Z" fill="#F28F8F"/>
<path d="M359.921 233.471C364.886 233.685 368.749 233.792 372.976 236.242C377.202 238.681 396.099 254.493 396.099 254.493C396.099 254.493 396.281 246.448 396.774 242.201C397.105 239.259 397.597 238.339 398.518 238.489C398.518 238.489 400.155 241.003 404.799 241.345C409.443 241.698 411.005 239.762 411.005 239.762C411.005 239.762 412.353 239.441 412.846 241.345C413.338 243.238 414.205 263.8 413.359 269.726C412.514 275.653 409.86 278.402 406.297 279.237C402.734 280.071 394.484 275.086 384.586 268.421C374.677 261.757 363.923 255.552 363.923 255.552L359.943 233.471H359.921Z" fill="#27DEBF"/>
<path opacity="0.7" d="M359.921 233.471C364.886 233.685 368.749 233.792 372.976 236.242C377.202 238.681 396.099 254.493 396.099 254.493C396.099 254.493 396.281 246.448 396.774 242.201C397.105 239.259 397.597 238.339 398.518 238.489C398.518 238.489 400.155 241.003 404.799 241.345C409.443 241.698 411.005 239.762 411.005 239.762C411.005 239.762 412.353 239.441 412.846 241.345C413.338 243.238 414.205 263.8 413.359 269.726C412.514 275.653 409.86 278.402 406.297 279.237C402.734 280.071 394.484 275.086 384.586 268.421C374.677 261.757 363.923 255.552 363.923 255.552L359.943 233.471H359.921Z" fill="white"/>
<path opacity="0.1" d="M396.099 254.493C395.297 260.013 396.506 266.036 396.506 266.036C396.506 266.036 392.879 259.039 394.002 252.631L396.099 254.493Z" fill="#111111"/>
<path d="M319.131 237.815C318.318 242.147 310.078 283.334 319.441 314.048C336.305 316.038 365.935 308.292 370.375 297.134C370.375 297.134 367.379 286.544 366.085 281.366C366.363 272.872 366.085 256.654 365.913 251.636C365.571 241.698 364.019 234.006 359.086 233.279C359.086 233.279 349.178 232.883 343.186 233.129C338.007 233.343 334.112 233.396 334.112 233.396L319.131 237.815Z" fill="#FAFAFA"/>
<path d="M343.903 303.286C342.811 300.868 322.79 288.512 322.79 288.512C322.79 288.512 323.09 282.789 324.289 272.251C325.487 261.714 325.829 249.09 322.031 242.746L318.2 242.896C316.038 255.669 311.63 288.48 319.43 314.059C328.419 315.118 341.045 313.417 351.543 309.897C349.606 308.603 344.769 305.211 343.903 303.286Z" fill="#F0F0F0"/>
<path d="M332.378 223.725C332.41 221.597 328.323 215.231 326.471 210.193C323.379 201.773 323.112 194.21 330.741 190.936C330.741 190.936 335.513 182.71 347.541 182.303C359.568 181.897 368.824 192.049 364.822 205.625L332.367 223.736L332.378 223.725Z" fill="#455A64"/>
<path d="M335.353 210.727C333.78 210.727 333.213 208.47 332.132 207.261C331.051 206.052 327.338 204.694 324.941 208.149C322.716 211.369 324.877 216.002 327.306 217.799C330.366 220.056 332.464 217.874 332.464 217.874L332.186 234.873C332.186 234.873 332.731 238.638 339.676 240.831C347.701 243.356 354.228 239.141 349.445 233.846L349.627 229.363C351.906 229.877 355.02 230.155 357.385 229.791C360.06 229.385 362.2 227.373 363.581 223.244C366.266 215.188 365.517 204.458 362.746 194.659C360.103 196.756 347.851 200.671 336.819 196.788C337.204 203.56 336.883 210.717 335.353 210.717V210.727Z" fill="#FFA8A7"/>
<path d="M330.987 215.969C330.987 216.515 330.538 216.964 329.992 216.964C329.446 216.964 328.997 216.515 328.997 215.969C328.997 215.424 329.446 214.975 329.992 214.975C330.538 214.975 330.987 215.424 330.987 215.969Z" fill="#263238"/>
<path d="M349.627 229.363C349.627 229.363 342.929 227.405 340.296 225.555C338.349 224.185 336.615 222.014 336.187 220.869C336.187 220.869 337.193 224.453 339.012 226.528C342.212 230.155 349.542 231.834 349.542 231.834L349.627 229.353V229.363Z" fill="#F28F8F"/>
<path d="M349.092 210.631C349.114 211.583 348.375 212.375 347.455 212.386C346.535 212.396 345.775 211.637 345.754 210.685C345.732 209.733 346.471 208.941 347.391 208.93C348.311 208.92 349.071 209.679 349.092 210.631Z" fill="#263238"/>
<path d="M347.262 204.951L343.656 206.844C343.153 205.806 343.549 204.544 344.545 204.02C345.54 203.496 346.76 203.913 347.262 204.94V204.951Z" fill="#263238"/>
<path d="M348.568 219.382L354.293 221.211C353.726 222.816 351.992 223.704 350.408 223.201C348.825 222.698 348.001 220.987 348.568 219.382Z" fill="#F28F8F"/>
<path d="M362.693 204.876L358.733 203.795C358.99 202.683 360.092 202.019 361.184 202.319C362.275 202.618 362.949 203.763 362.693 204.876Z" fill="#263238"/>
<path d="M361.665 209.315C361.687 210.267 360.948 211.059 360.028 211.07C359.108 211.08 358.348 210.321 358.327 209.369C358.305 208.417 359.044 207.625 359.964 207.614C360.884 207.604 361.644 208.363 361.665 209.315Z" fill="#263238"/>
<path d="M363.506 194.67C367.208 192.038 369.263 188.508 368.278 183.662C366.834 185.106 362.789 185.373 359.247 183.683C355.47 181.886 349.488 179.436 341.099 181.062C334.561 182.325 330.73 187.299 330.73 190.947C332.004 193.557 333.769 194.959 336.808 196.799C336.808 196.799 343.079 201.923 352.581 201.335C358.691 200.96 361.869 197.976 361.869 197.976C361.869 197.976 358.455 198.275 356.85 197.216C356.85 197.216 360.734 196.638 363.495 194.67H363.506Z" fill="#37474F"/>
<path d="M354.496 217.264L359.6 214.932L353.083 205.945L354.496 217.264Z" fill="#F28F8F"/>
<path opacity="0.15" d="M410.545 325.452C410.106 324.789 409.593 324.189 408.993 323.633C403.044 318.134 391.873 310.86 382.381 304.816L339.194 329.742C338.927 329.892 338.927 330.277 339.194 330.426L370.557 348.527L410.534 325.452H410.545Z" fill="#111111"/>
<path d="M423.642 312.775V313.47C423.642 314.497 423.097 315.439 422.209 315.952L372.002 344.933C371.563 345.189 371.06 345.318 370.568 345.318C370.076 345.318 369.573 345.189 369.123 344.933L341.752 329.185C340.874 328.683 340.318 327.72 340.318 326.704V325.741C340.318 325.88 340.371 325.987 340.5 326.062L370.557 343.414L423.632 312.775H423.642Z" fill="#37474F"/>
<path d="M370.568 343.414V345.318C371.06 345.318 371.563 345.189 372.002 344.933L422.209 315.952C423.097 315.439 423.642 314.486 423.642 313.47V312.775L370.568 343.414Z" fill="#263238"/>
<path d="M423.642 312.775L393.874 295.594C393.349 295.284 392.697 295.284 392.162 295.594L340.51 325.409C340.254 325.559 340.254 325.923 340.51 326.072L370.557 343.424L423.632 312.786L423.642 312.775Z" fill="#455A64"/>
<path d="M370.29 340.889L354.239 331.625L401.193 304.527L417.329 313.738L370.29 340.889Z" fill="#37474F"/>
<path d="M417.329 313.738L416.719 314.091L401.182 305.233L354.849 331.978L354.239 331.625L401.182 304.527L417.329 313.738Z" fill="#263238"/>
<path d="M362.404 315.128L362.703 315.3L370.568 319.846L384.564 311.759L384.853 311.598L376.689 306.88L362.404 315.128Z" fill="#263238"/>
<path d="M362.703 315.3L370.568 319.846L384.564 311.759L376.689 307.223L362.703 315.3Z" fill="#37474F"/>
<path d="M377.63 320.755C375.383 318.52 372.109 315.428 369.37 314.519C369.016 314.401 368.481 314.155 367.444 313.92C368.385 313.738 369.337 313.663 370.268 313.353C371.189 313.042 372.055 312.539 372.655 311.769C372.89 311.459 373.061 310.967 372.762 310.721C372.655 310.635 372.516 310.582 372.366 310.582C370.311 310.518 368.685 310.197 366.823 310.068C366.01 310.015 365.089 309.897 364.308 310.111C363.538 310.314 362.778 310.539 362.029 310.806C358.616 311.983 355.512 313.053 350.676 311.919L341.987 307.287C341.987 307.287 340.136 306.827 337.397 311.459C334.657 316.091 336.262 318.637 336.262 318.637L346.021 322.007C346.021 322.007 346.117 322.039 346.16 322.061C347.23 322.467 348.204 323.302 350.772 324.093C353.811 325.024 357.706 323.922 360.349 323.783C362.992 323.644 367.476 324.863 369.926 325.858C372.376 326.853 375.319 323.077 376.55 323.537C377.78 323.986 379.91 323.002 377.652 320.766L377.63 320.755Z" fill="#FFA8A7"/>
<path d="M366.299 312.465C364.522 312.283 362.553 313.074 362.553 313.074C362.553 313.074 364.747 313.117 367.433 313.92C368.374 313.738 369.327 313.663 370.258 313.353C371.071 313.085 371.841 312.657 372.419 312.026C370.943 313.032 368.075 312.636 366.299 312.454V312.465Z" fill="#F28F8F"/>
<path d="M319.131 237.815C321.603 238.788 324.824 249.101 322.844 259.018L318.243 290.031C318.243 290.031 323.882 293.369 331.79 298.268C337.268 301.66 341.976 304.773 341.976 307.287C338.381 308.581 335.16 315.193 336.241 318.637C333.791 321.547 311.148 308.998 303.23 303.585C299.56 301.071 297.709 300.087 299.121 288.758C300.683 276.22 301.753 262.291 304.193 252.995C306.74 243.292 309.586 239.526 319.12 237.825L319.131 237.815Z" fill="#27DEBF"/>
<path opacity="0.7" d="M319.131 237.815C321.603 238.788 324.824 249.101 322.844 259.018L318.243 290.031C318.243 290.031 323.882 293.369 331.79 298.268C337.268 301.66 341.976 304.773 341.976 307.287C338.381 308.581 335.16 315.193 336.241 318.637C333.791 321.547 311.148 308.998 303.23 303.585C299.56 301.071 297.709 300.087 299.121 288.758C300.683 276.22 301.753 262.291 304.193 252.995C306.74 243.292 309.586 239.526 319.12 237.825L319.131 237.815Z" fill="white"/>
<path d="M371.381 343.831C372.334 344.195 373.414 344.13 374.313 343.606L424.306 314.754C425.183 314.251 425.793 313.374 425.964 312.379L431.432 279.75C431.464 279.569 431.475 279.376 431.475 279.194C431.475 278.285 431.111 277.418 430.469 276.776L378.518 306.763C377.866 307.137 377.427 307.779 377.299 308.517L371.381 343.831Z" fill="#37474F"/>
<path d="M370.568 343.414L370.91 343.606C371.06 343.692 371.221 343.767 371.381 343.831L377.299 308.517C377.427 307.779 377.876 307.137 378.518 306.763L430.469 276.776C430.266 276.573 430.031 276.402 429.774 276.252L377.716 306.292C377.063 306.666 376.625 307.308 376.496 308.046L370.568 343.403V343.414Z" fill="#455A64"/>
<path d="M377.78 307.437L376.978 306.977C376.742 307.298 376.571 307.661 376.496 308.057L370.568 343.414L370.91 343.606C371.06 343.692 371.221 343.767 371.381 343.831L377.299 308.517C377.363 308.111 377.545 307.747 377.78 307.426V307.437Z" fill="#263238"/>
<path d="M399.534 313.716C399.898 311.534 402.156 308.635 404.574 307.233C406.992 305.843 408.651 306.484 408.287 308.667C407.923 310.849 405.666 313.748 403.247 315.15C400.829 316.541 399.17 315.909 399.534 313.716Z" fill="#27DEBF"/>
</g>
<defs>
<clipPath id="clip0_24_1312">
<rect width="509" height="504" fill="white"/>
</clipPath>
</defs>
</svg>
