<svg width="26" height="26" viewBox="0 0 26 26" fill="none" xmlns="http://www.w3.org/2000/svg">
<g clip-path="url(#clip0_44_1858)">
<path d="M11.4966 25.4708L0.537703 14.1958C0.371659 14.025 0.253768 13.8399 0.18403 13.6406C0.114291 13.4413 0.079976 13.2278 0.0810829 13C0.0810829 12.7722 0.115952 12.5587 0.185691 12.3594C0.255429 12.1601 0.372766 11.975 0.537702 11.8042L11.4966 0.529166C11.801 0.215972 12.1818 0.0525415 12.6389 0.0388747C13.0961 0.025208 13.4902 0.188638 13.8212 0.529166C14.1533 0.84236 14.3265 1.23414 14.3409 1.7045C14.3553 2.17486 14.1959 2.58031 13.8627 2.92083L5.72656 11.2917L24.2819 11.2917C24.7524 11.2917 25.147 11.4557 25.4658 11.7837C25.7846 12.1117 25.9435 12.5171 25.9424 13C25.9424 13.484 25.7835 13.89 25.4658 14.218C25.1481 14.546 24.7535 14.7095 24.2819 14.7083L5.72656 14.7083L13.8627 23.0792C14.1671 23.3924 14.3265 23.791 14.3409 24.275C14.3553 24.759 14.1959 25.1576 13.8627 25.4708C13.5583 25.8125 13.1708 25.9833 12.7004 25.9833C12.2299 25.9833 11.8287 25.8125 11.4966 25.4708Z" fill="#111111"/>
</g>
<defs>
<clipPath id="clip0_44_1858">
<rect width="26" height="26" fill="white"/>
</clipPath>
</defs>
</svg>
