<svg width="37" height="40" viewBox="0 0 37 40" fill="none" xmlns="http://www.w3.org/2000/svg">
<g clip-path="url(#clip0_50_75)">
<path d="M36.862 24.4649C35.6998 28.3593 33.3706 31.7783 30.2059 34.2352C27.4274 36.3818 24.1211 37.691 20.658 38.0159C17.1949 38.3407 13.7121 37.6684 10.6006 36.0743C7.48912 34.4802 4.87201 32.0274 3.04306 28.9913C1.21411 25.9553 0.245706 22.456 0.246548 18.8864C0.234045 14.7198 1.55358 10.6641 4.00272 7.34147C6.39626 4.09293 9.72696 1.70206 13.5209 0.50908C13.7709 0.430046 14.0372 0.422478 14.2911 0.48719C14.5451 0.551901 14.777 0.686444 14.962 0.876348C15.147 1.06625 15.2781 1.30433 15.3411 1.56498C15.4042 1.82564 15.3968 2.099 15.3198 2.35567C14.4902 5.17251 14.4206 8.16762 15.1185 11.0218C15.8164 13.8761 17.2556 16.4825 19.2827 18.5633C21.3099 20.6441 23.849 22.1215 26.6296 22.8378C29.4101 23.5542 32.3279 23.4828 35.0721 22.6312C35.3221 22.5522 35.5884 22.5446 35.8423 22.6093C36.0963 22.6741 36.3282 22.8086 36.5132 22.9985C36.6982 23.1884 36.8293 23.4265 36.8923 23.6871C36.9553 23.9478 36.948 24.2212 36.871 24.4778L36.862 24.4649Z" fill="#111111"/>
</g>
<defs>
<clipPath id="clip0_50_75">
<rect width="36.8421" height="40" fill="white" transform="translate(0.157959)"/>
</clipPath>
</defs>
</svg>
